<?xml version="1.0" standalone="no"?>
<!DOCTYPE svg PUBLIC "-//W3C//DTD SVG 1.1//EN" "http://www.w3.org/Graphics/SVG/1.1/DTD/svg11.dtd" >
<svg xmlns="http://www.w3.org/2000/svg">
<metadata>Generated by IcoMoon</metadata>
<defs>
<font id="icomoon" horiz-adv-x="1024">
<font-face units-per-em="1024" ascent="960" descent="-64" />
<missing-glyph horiz-adv-x="1024" />
<glyph unicode="&#x20;" horiz-adv-x="512" d="" />
<glyph unicode="&#xe900;" glyph-name="world" d="M512 874.667c-235.641 0-426.667-191.025-426.667-426.667s191.025-426.667 426.667-426.667c235.641 0 426.667 191.025 426.667 426.667v0c0 235.641-191.025 426.667-426.667 426.667v0zM170.667 448c0.155 27.011 3.412 53.183 9.433 78.281l-0.473-2.334 203.947-203.947v-42.667c0.145-47.070 38.264-85.188 85.319-85.333h0.014v-82.347c-168.862 22.337-297.871 165.22-298.24 338.308v0.039zM763.307 217.6c-11.11 34.861-43.183 59.68-81.060 59.733h-42.673v128c0 23.564-19.103 42.667-42.667 42.667v0h-256v85.333h85.333c23.564 0 42.667 19.103 42.667 42.667v0 85.333h85.333c47.070 0.145 85.188 38.264 85.333 85.319v17.507c126.344-51.633 213.747-173.588 213.747-315.957 0-89.079-34.217-170.166-90.225-230.835l0.211 0.232z" />
<glyph unicode="&#xe901;" glyph-name="dubble-check" horiz-adv-x="916" d="M291.34 81.715l-218.483 218.483-72.857-72.857 291.34-291.34 624.351 624.351-72.857 72.857zM291.34 408.506l-218.483 218.483-72.857-72.857 291.34-291.34 624.351 624.351-72.857 72.857z" />
<glyph unicode="&#xe902;" glyph-name="account_box" d="M810.667 746.667v-597.333h-597.333v597.333h597.333zM810.667 832h-597.333c-47.128 0-85.333-38.205-85.333-85.333v0-597.333c0-47.128 38.205-85.333 85.333-85.333v0h597.333c47.070 0.145 85.188 38.264 85.333 85.319v597.347c-0.145 47.070-38.264 85.188-85.319 85.333h-0.014zM512 448c-70.692 0-128 57.308-128 128s57.308 128 128 128c70.692 0 128-57.308 128-128v0c-0.218-70.605-57.395-127.782-127.979-128h-0.021zM512 618.667c-23.564 0-42.667-19.103-42.667-42.667s19.103-42.667 42.667-42.667c23.564 0 42.667 19.103 42.667 42.667v0c0 23.564-19.103 42.667-42.667 42.667v0zM768 192h-512v65.28c0 106.667 169.387 152.747 256 152.747s256-46.080 256-152.747zM354.56 277.333h314.88c-44.509 29.125-98.813 46.814-157.186 47.783l-0.254 0.003c-58.632-0.901-112.952-18.602-158.575-48.484l1.135 0.698z" />
<glyph unicode="&#xe903;" glyph-name="arrow-down" d="M810.667 588.245l-70.187 73.088-228.48-237.355-228.48 237.355-70.187-73.088 298.667-310.912z" />
<glyph unicode="&#xe904;" glyph-name="arrow-left" d="M652.245 149.333l73.088 70.187-237.355 228.48 237.355 228.48-73.088 70.187-310.912-298.667z" />
<glyph unicode="&#xe905;" glyph-name="arrow-right" d="M371.755 149.333l-73.088 70.187 237.355 228.48-237.355 228.48 73.088 70.187 310.912-298.667z" />
<glyph unicode="&#xe906;" glyph-name="arrow-up" d="M810.667 307.755l-70.187-73.088-228.48 237.355-228.48-237.355-70.187 73.088 298.667 310.912z" />
<glyph unicode="&#xe907;" glyph-name="bag" d="M853.333 661.333h-170.667v85.333l-85.333 85.333h-170.667l-85.333-85.333v-85.333h-170.667c-47.070-0.145-85.188-38.264-85.333-85.319v-213.347c0-0.091-0.001-0.199-0.001-0.307 0-31.306 16.994-58.643 42.261-73.289l0.406-0.217v-139.52c0-0.089-0.001-0.194-0.001-0.299 0-46.963 38.071-85.035 85.035-85.035 0.105 0 0.21 0 0.315 0.001h597.317c0.089 0 0.194-0.001 0.299-0.001 46.963 0 85.035 38.071 85.035 85.035 0 0.105 0 0.21-0.001 0.315v-0.016 139.947c25.464 15.023 42.353 42.198 42.666 73.342v213.378c-0.145 47.070-38.264 85.188-85.319 85.333h-0.014zM426.667 746.667h170.667v-85.333h-170.667zM170.667 576h682.667v-213.333h-213.333v128h-256v-128h-213.333zM554.667 320h-85.333v85.333h85.333zM810.667 149.333h-597.333v128h170.667v-42.667h256v42.667h170.667z" />
<glyph unicode="&#xe908;" glyph-name="banck" d="M277.333 533.333h-85.333v-298.667h85.333zM533.333 533.333h-85.333v-298.667h85.333zM896 149.333h-810.667v-85.333h810.667zM789.333 533.333h-85.333v-298.667h85.333zM490.667 820.907l222.293-116.907h-444.587l222.293 116.907zM490.667 917.333l-405.333-213.333v-85.333h810.667v85.333z" />
<glyph unicode="&#xe909;" glyph-name="blue-doc" horiz-adv-x="842" d="M833.277 773.776l-166.353 175.944c-6 6.337-14.473 10.28-23.866 10.28-0.004 0-0.008 0-0.012 0h-610.169c-18.139 0-32.844-14.705-32.844-32.844v0-958.28c0-18.139 14.705-32.844 32.844-32.844v0h776.523c18.139 0 32.844 14.705 32.844 32.844v0 782.336c0 0.004 0 0.008 0 0.012 0 8.74-3.414 16.682-8.981 22.567l0.014-0.015zM65.72 1.72v892.56h528.783v-164.218c0-18.139 14.705-32.844 32.844-32.844v0h149.143v-695.366zM639.204 286.803c-21.858 0-39.577-17.719-39.577-39.577v0-113.245c0-21.867 17.726-39.593 39.593-39.593s39.593 17.726 39.593 39.593v0 113.245c0 21.858-17.719 39.577-39.577 39.577-0.012 0-0.023 0-0.035 0h0.002zM544.351 581.805c-80.155-0.093-145.108-65.047-145.202-145.193v-292.58c0.025-21.857 17.749-39.565 39.609-39.565 7.385 0 14.299 2.021 20.217 5.541l-0.182-0.1 105.592 62.107c11.763 7.007 19.52 19.66 19.52 34.125 0 21.864-17.724 39.588-39.588 39.588-7.399 0-14.324-2.030-20.249-5.563l0.181 0.1-45.981-27.030v94.228c19.218-10.039 41.974-15.929 66.106-15.929 80.157 0 145.136 64.98 145.136 145.136s-64.98 145.136-145.136 145.136c-0.032 0-0.064 0-0.096 0h0.005zM164.645 736.696h388.869v-79.153h-388.869v79.153zM261.468 585.155h308.106v-79.153h-308.106v79.153zM176.173 433.614h247.181v-79.153h-247.181v79.153zM177.586 282.074h225.34v-79.153h-225.34v79.153z" />
<glyph unicode="&#xe90a;" glyph-name="calendar_today" d="M853.333 832h-42.667v85.333h-85.333v-85.333h-426.667v85.333h-85.333v-85.333h-42.667c-47.070-0.145-85.188-38.264-85.333-85.319v-682.681c0.145-47.070 38.264-85.188 85.319-85.333h682.681c47.070 0.145 85.188 38.264 85.333 85.319v682.681c-0.145 47.070-38.264 85.188-85.319 85.333h-0.014zM853.333 64h-682.667v469.333h682.667zM853.333 618.667h-682.667v128h682.667z" />
<glyph unicode="&#xe90b;" glyph-name="card_giftcard" d="M853.333 704h-93.013c4.709 12.779 7.433 27.538 7.433 42.933 0 70.527-57.174 127.701-127.701 127.701-44.423 0-83.547-22.682-106.425-57.097l-0.294-0.47-21.333-28.587-21.333 29.013c-23.16 35.020-62.368 57.803-106.896 57.803-70.551 0-127.744-57.193-127.744-127.744 0-15.626 2.806-30.597 7.941-44.436l-0.287 0.884h-93.013c-0.064 0-0.14 0-0.216 0-46.775 0-84.693-37.918-84.693-84.693 0-0.225 0.001-0.45 0.003-0.675v0.034l-0.427-469.333c0-0.089-0.001-0.194-0.001-0.299 0-46.963 38.071-85.035 85.035-85.035 0.105 0 0.21 0 0.315 0.001h682.651c0.089 0 0.194-0.001 0.299-0.001 46.963 0 85.035 38.071 85.035 85.035 0 0.105 0 0.21-0.001 0.315v-0.016 469.333c0 0.089 0.001 0.194 0.001 0.299 0 46.963-38.071 85.035-85.035 85.035-0.105 0-0.21 0-0.315-0.001h0.016zM640 789.333c23.564 0 42.667-19.103 42.667-42.667s-19.103-42.667-42.667-42.667c-23.564 0-42.667 19.103-42.667 42.667v0c0 23.564 19.103 42.667 42.667 42.667v0zM384 789.333c23.564 0 42.667-19.103 42.667-42.667s-19.103-42.667-42.667-42.667c-23.564 0-42.667 19.103-42.667 42.667v0c0 23.564 19.103 42.667 42.667 42.667v0zM853.333 149.333h-682.667v85.333h682.667zM853.333 362.667h-682.667v256h216.747l-88.747-120.747 69.12-49.92 144.213 196.267 144.213-196.267 69.12 49.92-88.747 120.747h216.747z" />
<glyph unicode="&#xe90c;" glyph-name="chat_bubble" d="M853.333 874.667h-682.667c-47.070-0.145-85.188-38.264-85.333-85.319v-768.014l170.667 170.667h597.333c47.070 0.145 85.188 38.264 85.333 85.319v512.014c-0.145 47.070-38.264 85.188-85.319 85.333h-0.014zM853.333 277.333h-597.333l-85.333-85.333v597.333h682.667z" />
<glyph unicode="&#xe90d;" glyph-name="check" horiz-adv-x="1373" d="M466.415-43.935l-445.881 445.881c-12.446 12.426-20.145 29.603-20.145 48.578s7.699 36.152 20.144 48.577l0.001 0.001 96.803 96.92c12.426 12.446 29.603 20.145 48.578 20.145s36.152-7.699 48.577-20.144l300.618-300.618 643.828 644.415c12.426 12.446 29.603 20.145 48.578 20.145s36.152-7.699 48.577-20.144l97.039-97.156c12.446-12.426 20.145-29.603 20.145-48.578s-7.699-36.152-20.144-48.577l-789.914-789.444c-12.426-12.446-29.603-20.145-48.578-20.145s-36.152 7.699-48.577 20.144l-0.001 0.001z" />
<glyph unicode="&#xe90e;" glyph-name="check-doc" horiz-adv-x="842" d="M833.239 773.764l-166.35 175.93c-6 6.351-14.479 10.305-23.882 10.306h-610.139c-18.114-0.093-32.774-14.753-32.867-32.858v-958.275c0.093-18.114 14.753-32.774 32.858-32.867h776.531c0 0 0 0 0 0 18.185 0 32.938 14.695 33.032 32.858v782.279c-0.063 8.792-3.551 16.757-9.194 22.639l0.011-0.011zM65.701 1.734v892.532h528.813v-164.302c0.093-18.114 14.753-32.774 32.858-32.867h149.15v-695.362zM172.329 735.678h367.616v-74.851h-367.616v74.851zM662.825 571.243c12.096 14.18 29.981 23.113 49.952 23.113 17.288 0 33.012-6.694 44.723-17.631l-0.038 0.035c13.807-12.94 22.409-31.289 22.409-51.647 0-17.637-6.456-33.767-17.135-46.154l0.077 0.092-340.067-393.084c-12.119-14.168-30.015-23.090-49.994-23.090s-37.875 8.923-49.919 23.001l-0.075 0.090-180.984 206.253c-10.596 12.302-17.048 28.435-17.048 46.076 0 20.363 8.598 38.717 22.361 51.632l0.038 0.035c11.671 10.894 27.389 17.582 44.669 17.582 19.98 0 37.871-8.941 49.892-23.040l0.076-0.092 131.006-148.414z" />
<glyph unicode="&#xe90f;" glyph-name="coins" horiz-adv-x="869" d="M274.012 698.171c0 37.599 89.902 42.955 115.896 0l49.835 23.053-4.569 4.884c-14.58 30.627-44.521 51.818-79.589 53.658l-0.23 0.010v31.14h-53.301v-31.035c-53.195-7.982-87.644-38.282-87.644-81.71 0-116.894 172.242-58.079 172.242-115.528 0-44.163-106.864-53.195-131.807 5.251l-54.193-22.948c15.59-41.869 54.958-71.272 101.275-71.889l0.075-0.001v-33.241h53.195v35.026c53.195 4.989 91.267 33.451 91.267 87.539 0.21 120.359-172.452 63.961-172.452 115.791zM855.434 624.863c-4.861 39.265-38.019 69.359-78.205 69.359-2.436 0-4.845-0.111-7.225-0.327l0.306 0.022h-138.004c-27.223 144.846-152.721 252.97-303.472 252.97-1.108 0-2.214-0.006-3.319-0.017l0.169 0.001c-172.311-0.18-311.926-139.906-311.926-312.241 0-172.446 139.795-312.241 312.241-312.241 172.317 0 312.032 139.586 312.241 311.854v0.020c0 2.363 0 6.459 0 6.459h132.28c16.699 0 31.928-7.824 31.928-15.754v-50.517c0-7.982-15.229-18.747-31.928-18.747h-85.071v-53.195h104.501c7.165-1.331 12.517-7.533 12.517-14.985 0-0.27-0.007-0.539-0.021-0.806l0.002 0.037v-50.517c0.009-0.219 0.014-0.477 0.014-0.736 0-8.206-5.142-15.21-12.38-17.967l-0.132-0.044h-200.284v-53.195h200.284c7.165-1.331 12.517-7.533 12.517-14.985 0-0.27-0.007-0.539-0.021-0.806l0.002 0.037c0-42.693 4.621-69.264-15.754-69.264h-402.563c-4.149 0-10.24 10.503-10.24 21.268h-53.195c-0.011-0.461-0.017-1.005-0.017-1.55 0-16.494 5.769-31.64 15.4-43.531l-0.102 0.13c-14.966-19.587-12.183-39.542-12.183-99.774 0-0.011 0-0.024 0-0.038 0-15.177 5.094-29.164 13.665-40.346l-0.117 0.158c-16.699-22.055-13.548-36.759-13.548-98.094-0.037-0.822-0.058-1.786-0.058-2.755 0-35.569 28.335-64.519 63.664-65.51l0.091-0.002h399.097c37.655 0.54 68.094 30.685 69.105 68.172l0.002 0.094c0 61.335 3.098 76.039-13.601 98.094 16.699 22.055 13.601 36.759 13.601 98.094-0.011 15.289-5.184 29.367-13.872 40.587l0.113-0.152c16.857 23.631 13.758 42.010 13.758 94.208 0.001 0.127 0.001 0.276 0.001 0.426 0 16.302-5.194 31.39-14.018 43.701l0.154-0.226c17.067 23.683 13.863 42.43 13.863 94.523 0.002 0.177 0.002 0.386 0.002 0.595 0 17.371-5.931 33.356-15.879 46.041l0.123-0.162c19.062 22.528 15.491 38.702 15.491 91.635zM325.684 375.69c-143.241 0-259.361 116.12-259.361 259.361s116.12 259.361 259.361 259.361c143.241 0 259.361-116.12 259.361-259.361v0c-0.149-143.181-116.18-259.211-259.347-259.361h-0.014zM802.291 154.243c0-7.512-6.089-13.601-13.601-13.601v0c-419.472 0-411.963-5.566-411.963 13.601v57.764c0 7.512 6.089 13.601 13.601 13.601v0c419.472 0 411.963 5.566 411.963-13.601zM802.291 15.925c0-7.512-6.089-13.601-13.601-13.601v0c-419.472 0-411.963-5.566-411.963 13.601v57.764c0 7.512 6.089 13.601 13.601 13.601v0c419.472 0 411.963 5.566 411.963-13.601z" />
<glyph unicode="&#xe910;" glyph-name="dashboard" d="M810.667 746.667v-85.333h-170.667v85.333h170.667zM384 746.667v-256h-170.667v256h170.667zM810.667 405.333v-256h-170.667v256h170.667zM384 234.667v-85.333h-170.667v85.333h170.667zM896 832h-341.333v-256h341.333zM469.333 832h-341.333v-426.667h341.333zM896 490.667h-341.333v-426.667h341.333zM469.333 320h-341.333v-256h341.333z" />
<glyph unicode="&#xe911;" glyph-name="delete" d="M682.667 576v-426.667h-341.333v426.667h341.333zM618.667 832h-213.333l-42.667-42.667h-149.333v-85.333h597.333v85.333h-149.333zM768 661.333h-512v-512c0.145-47.070 38.264-85.188 85.319-85.333h341.347c47.070 0.145 85.188 38.264 85.333 85.319v0.014z" />
<glyph unicode="&#xe912;" glyph-name="description" d="M341.333 277.333h341.333v-85.333h-341.333zM341.333 448h341.333v-85.333h-341.333zM597.333 874.667h-341.333c-47.070-0.145-85.188-38.264-85.333-85.319v-682.681c0 0 0-0.001 0-0.001 0-46.978 37.962-85.090 84.884-85.332h512.45c47.070 0.145 85.188 38.264 85.333 85.319v512.014zM768 106.667h-512v682.667h298.667v-213.333h213.333z" />
<glyph unicode="&#xe913;" glyph-name="edit" d="M599.893 575.147l39.253-39.253-386.56-386.56h-39.253v39.253l386.56 386.56zM753.493 832c-11.656-0.051-22.2-4.767-29.869-12.376l-78.077-78.077 160-160 78.080 78.080c7.668 7.712 12.407 18.343 12.407 30.080s-4.74 22.368-12.409 30.082l-99.838 99.838c-7.592 7.645-18.109 12.377-29.732 12.377-0.197 0-0.395-0.001-0.591-0.004h0.030zM599.893 695.893l-471.893-471.893v-160h160l471.893 471.893-160 160z" />
<glyph unicode="&#xe914;" glyph-name="equalizer" d="M426.667 106.667h170.667v682.667h-170.667zM170.667 106.667h170.667v341.333h-170.667zM682.667 576v-469.333h170.667v469.333z" />
<glyph unicode="&#xe915;" glyph-name="eye" d="M512 682.667c0.412 0.001 0.899 0.002 1.386 0.002 163.929 0 305.757-94.625 373.844-232.234l1.090-2.435c-69.781-140.104-212.007-234.669-376.32-234.669s-306.539 94.565-375.223 232.24l-1.097 2.428c69.177 140.044 211.005 234.669 374.934 234.669 0.487 0 0.974-0.001 1.461-0.003h-0.075zM512 768c-212.119-0.13-393.612-131.12-468.129-316.605l-1.205-3.395c75.632-188.944 257.181-319.975 469.333-319.975s393.701 131.032 468.131 316.581l1.202 3.394c-75.722 188.88-257.214 319.87-469.317 320h-0.016zM512 554.667c58.91 0 106.667-47.756 106.667-106.667s-47.756-106.667-106.667-106.667c-58.91 0-106.667 47.756-106.667 106.667v0c0 58.91 47.756 106.667 106.667 106.667v0zM512 640c-106.039 0-192-85.961-192-192s85.961-192 192-192c106.039 0 192 85.961 192 192v0c-0.17 105.97-86.030 191.83-191.984 192h-0.016z" />
<glyph unicode="&#xe916;" glyph-name="fullscreen" d="M298.667 362.667h-85.333v-213.333h213.333v85.333h-128zM213.333 533.333h85.333v128h128v85.333h-213.333zM725.333 234.667h-128v-85.333h213.333v213.333h-85.333zM597.333 746.667v-85.333h128v-128h85.333v213.333z" />
<glyph unicode="&#xe917;" glyph-name="help_outline" d="M469.333 192h85.333v85.333h-85.333zM512 874.667c-235.641 0-426.667-191.025-426.667-426.667s191.025-426.667 426.667-426.667c235.641 0 426.667 191.025 426.667 426.667v0c0 235.641-191.025 426.667-426.667 426.667v0zM512 106.667c-188.513 0-341.333 152.82-341.333 341.333s152.82 341.333 341.333 341.333c188.513 0 341.333-152.82 341.333-341.333v0c-0.267-188.406-152.928-341.067-341.308-341.333h-0.025zM512 704c-94.257 0-170.667-76.41-170.667-170.667v0h85.333c0 47.128 38.205 85.333 85.333 85.333s85.333-38.205 85.333-85.333v0c0-85.333-128-74.667-128-213.333h85.333c0 96 128 106.667 128 213.333 0 94.257-76.41 170.667-170.667 170.667v0z" />
<glyph unicode="&#xe918;" glyph-name="manegar" horiz-adv-x="789" d="M344.871 212.868l-40.768-154.705 87.32-122.051 87.236 127.61-44.923 149.146zM750.529 313.075c-43.919 63.121-106.134 110.8-178.913 135.705l-2.521 0.75c-2.436 0.775-5.239 1.222-8.145 1.222-7 0-13.395-2.59-18.279-6.865l0.032 0.028c-0.73-0.646-73.45-63.988-148.444-63.988h-3.762c-74.938 0-146.984 63.258-147.686 63.875-4.89 4.401-11.393 7.093-18.526 7.093-3.198 0-6.269-0.541-9.128-1.537l0.195 0.059c-74.17-28.203-135.306-76.669-178.371-138.638l-0.817-1.242c-43.098-68.452-35.826-190.559-35.489-195.725 0.972-14.496 12.968-25.887 27.626-25.887 0.001 0 0.002 0 0.002 0h190.306v55.312h-163.325c-0.135 3.346-0.212 7.273-0.212 11.218 0 45.589 10.286 88.776 28.665 127.366l-0.769-1.793c34.14 48.869 80.436 87.073 134.572 110.642l2.051 0.796c27.547-21.451 59.277-39.387 93.474-52.296l2.493-0.826 22.462-70.193h101.808l25.691 68.901c38.514 13.789 71.857 32.291 101.546 55.287l-0.833-0.621c56.769-22.34 103.594-59.68 136.943-107.171l0.635-0.954c18.781-39.371 29.751-85.567 29.751-134.325 0-1.884-0.016-3.765-0.049-5.641l0.004 0.282h-170.568v-55.312h198.168c14.871 0.018 26.994 11.758 27.626 26.476l0.002 0.057c0.112 5.166 4.661 129.716-38.213 197.944zM393.051 439.254c109.152 0.112 197.607 88.567 197.719 197.708v125.458c0 109.197-88.522 197.719-197.719 197.719s-197.719-88.522-197.719-197.719v0-125.308c0.048-109.206 88.524-197.731 197.706-197.859h0.013zM250.644 759.333c13.929 3.779 29.921 5.949 46.42 5.949 22.228 0 43.536-3.94 63.264-11.16l-1.278 0.409c30.328-10.393 65.33-16.957 101.685-18.178l0.6-0.016c26.746 0.138 52.193 5.542 75.408 15.226l-1.313-0.485v-114.161c0-78.649-63.758-142.407-142.407-142.407s-142.407 63.758-142.407 142.407v0z" />
<glyph unicode="&#xe919;" glyph-name="menu" d="M128 192h768v85.333h-768zM128 405.333h768v85.333h-768zM128 704v-85.333h768v85.333z" />
<glyph unicode="&#xe91a;" glyph-name="mobile_screen" d="M725.333 917.333h-426.667c-0.444 0.009-0.968 0.013-1.494 0.013-45.998 0-83.299-37.231-83.413-83.202v-768.011c-0.001-0.122-0.001-0.267-0.001-0.411 0-47.33 37.758-85.84 84.795-87.053l0.112-0.002h426.667c47.375 1.169 85.333 39.851 85.333 87.399 0 0.024 0 0.048 0 0.071v-0.004 768c-0.331 46.029-37.72 83.214-83.795 83.214-0.541 0-1.080-0.005-1.619-0.015l0.081 0.001zM725.333 149.333h-426.667v597.333h426.667z" />
<glyph unicode="&#xe91b;" glyph-name="money" horiz-adv-x="1143" d="M431.985-60.59l-418.993 238.144c-6.668 4.767-10.963 12.483-10.963 21.203 0 14.351 11.633 25.984 25.984 25.984 3.816 0 7.44-0.823 10.704-2.3l-0.163 0.066 405.352-230.609 178.348 112.349c4.333 3.356 9.846 5.379 15.83 5.379 14.351 0 25.984-11.633 25.984-25.984 0-10.066-5.723-18.795-14.093-23.11l-0.146-0.068-191.373-120.339c-3.91-2.507-8.68-3.996-13.798-3.996-4.697 0-9.1 1.254-12.895 3.445l0.125-0.066zM431.985 42.892l-418.993 238.274c-6.489 4.781-10.653 12.394-10.653 20.979 0 14.351 11.633 25.984 25.984 25.984 3.734 0 7.285-0.788 10.494-2.206l-0.166 0.066 405.352-230.609 178.348 112.349c3.418 1.769 7.46 2.806 11.745 2.806 14.351 0 25.984-11.633 25.984-25.984 0-8.366-3.953-15.808-10.094-20.561l-0.060-0.044-191.438-120.566c-3.91-2.507-8.68-3.996-13.798-3.996-4.697 0-9.1 1.254-12.895 3.445l0.125-0.066zM701.31 108.729c-8.040 4.522-13.382 12.999-13.382 22.723 0 0.004 0 0.009 0 0.013v-0.001 295.277l-392.36 223.041-219.371-138.17 367.805-209.139 178.348 112.349c4.333 3.356 9.846 5.379 15.83 5.379 14.351 0 25.984-11.633 25.984-25.984 0-10.066-5.723-18.795-14.093-23.11l-0.146-0.068-191.438-120.599c-3.909-2.48-8.671-3.952-13.776-3.952-4.703 0-9.114 1.249-12.92 3.434l0.127-0.067-418.928 238.144c-7.81 4.579-12.971 12.932-12.971 22.491 0 9.144 4.723 17.185 11.863 21.816l0.101 0.062 672.728 423.67c3.938 2.528 8.743 4.030 13.9 4.030 4.666 0 9.045-1.23 12.83-3.383l-0.128 0.067 418.733-238.242c7.795-4.583 12.944-12.928 12.944-22.475 0-9.133-4.712-17.165-11.837-21.799l-0.101-0.061-191.47-120.599c-3.393-1.739-7.403-2.759-11.651-2.759-14.351 0-25.984 11.633-25.984 25.984 0 8.338 3.928 15.76 10.034 20.514l0.058 0.044 154.898 97.44-367.772 209.204-219.403-138.203 380.959-216.642c1.098-0.625 2.031-1.248 2.919-1.928l-0.060 0.044 0.52-0.39c0.727-0.566 1.373-1.13 1.987-1.727l-0.005 0.005 0.455-0.422c0.717-0.722 1.397-1.485 2.035-2.282l0.044-0.056 0.195-0.325c0.41-0.51 0.816-1.082 1.19-1.678l0.045-0.076 0.26-0.455 0.487-0.844c0.357-0.682 0.682-1.332 0.974-2.014l0.357-0.78c0.321-0.751 0.653-1.702 0.93-2.675l0.045-0.183c0.249-0.902 0.465-2.003 0.605-3.129l0.012-0.119c0-0.195 0-0.422 0-0.617 0-0.877 0-1.721 0.162-2.598 0 0 0-0.292 0-0.455v-310.25c-0.034-9.158-4.8-17.195-11.979-21.797l-0.104-0.062-134.24-84.87c-3.909-2.48-8.67-3.952-13.775-3.952-4.585 0-8.894 1.188-12.633 3.272l0.132-0.068zM345.263 681.061l381.219-216.772c7.822-4.576 12.992-12.936 12.992-22.503 0-0.002 0-0.004 0-0.006v0-263.576l82.792 52.163v249.317l-29.232-18.319c-3.887-2.506-8.635-3.995-13.731-3.995-0.003 0-0.006 0-0.009 0v0c-14.192 0.206-25.618 11.76-25.618 25.982 0 9.176 4.757 17.242 11.939 21.865l0.103 0.062 32.188 20.3-367.772 208.944zM431.985 146.374l-418.993 238.112c-6.741 4.759-11.090 12.518-11.090 21.291 0 14.351 11.633 25.984 25.984 25.984 3.865 0 7.533-0.844 10.829-2.357l-0.162 0.067 405.352-230.609 178.348 112.349c4.333 3.356 9.846 5.379 15.83 5.379 14.351 0 25.984-11.633 25.984-25.984 0-10.066-5.723-18.795-14.093-23.11l-0.146-0.068-191.438-120.566c-3.91-2.507-8.68-3.996-13.798-3.996-4.697 0-9.1 1.254-12.895 3.445l0.125-0.066zM903.921 251.187c-2.482 3.911-3.955 8.673-3.955 13.78 0 9.19 4.771 17.266 11.971 21.886l0.104 0.062 191.438 120.566c3.393 1.739 7.403 2.759 11.651 2.759 14.351 0 25.984-11.633 25.984-25.984 0-8.338-3.928-15.76-10.034-20.514l-0.058-0.044-191.47-120.599c-3.911-2.482-8.673-3.955-13.78-3.955-9.19 0-17.266 4.771-21.886 11.971l-0.062 0.104zM903.921 354.668c-2.482 3.911-3.955 8.673-3.955 13.78 0 9.19 4.771 17.266 11.971 21.886l0.104 0.062 191.438 120.566c3.393 1.739 7.403 2.759 11.651 2.759 14.351 0 25.984-11.633 25.984-25.984 0-8.338-3.928-15.76-10.034-20.514l-0.058-0.044-191.47-120.599c-3.914-2.487-8.682-3.964-13.795-3.964-9.181 0-17.249 4.761-21.871 11.949l-0.062 0.103zM903.921 458.15c-2.482 3.911-3.955 8.673-3.955 13.78 0 9.19 4.771 17.266 11.971 21.886l0.104 0.062 191.438 120.599c3.393 1.739 7.403 2.759 11.651 2.759 14.351 0 25.984-11.633 25.984-25.984 0-8.338-3.928-15.76-10.034-20.514l-0.058-0.044-191.405-120.631c-3.887-2.506-8.635-3.995-13.731-3.995-0.003 0-0.006 0-0.009 0v0c-0.001 0-0.002 0-0.004 0-9.193 0-17.272 4.774-21.89 11.979l-0.062 0.104z" />
<glyph unicode="&#xe91c;" glyph-name="mood_bad" d="M511.573 874.667c-235.458-0.243-426.24-191.175-426.24-426.666 0-235.641 191.025-426.667 426.667-426.667s426.667 191.025 426.667 426.667v0c0 235.642-191.025 426.667-426.667 426.667-0.15 0-0.3 0-0.45 0h0.023zM512 106.667c-188.513 0-341.333 152.82-341.333 341.333s152.82 341.333 341.333 341.333c188.513 0 341.333-152.82 341.333-341.333v0c0-188.513-152.82-341.333-341.333-341.333v0zM661.333 490.667c35.346 0 64 28.654 64 64s-28.654 64-64 64c-35.346 0-64-28.654-64-64v0c0-35.346 28.654-64 64-64v0zM362.667 490.667c35.346 0 64 28.654 64 64s-28.654 64-64 64c-35.346 0-64-28.654-64-64v0c0-35.346 28.654-64 64-64v0zM512 384c-98.667-0.25-182.999-61.353-217.469-147.75l-0.557-1.583h436.053c-35.027 87.981-119.36 149.084-217.996 149.333h-0.031z" />
<glyph unicode="&#xe91d;" glyph-name="notifications" d="M512 21.333c47.070 0.145 85.188 38.264 85.333 85.319v0.014h-170.667c0.145-47.070 38.264-85.188 85.319-85.333h0.014zM768 277.333v213.333c0 130.987-69.547 240.64-192 269.653v29.013c0 35.346-28.654 64-64 64s-64-28.654-64-64v0-29.013c-122.027-29.013-192-138.24-192-269.653v-213.333l-85.333-85.333v-42.667h682.667v42.667zM682.667 234.667h-341.333v256c0 105.813 64.427 192 170.667 192s170.667-86.187 170.667-192z" />
<glyph unicode="&#xe91e;" glyph-name="search" d="M661.333 362.667h-33.707l-11.947 11.52c41.633 48.289 66.989 111.635 66.989 180.904 0 153.403-124.357 277.76-277.76 277.76s-277.76-124.357-277.76-277.76c0-153.403 124.357-277.76 277.76-277.76 69.269 0 132.615 25.356 181.264 67.293l-0.36-0.304 11.52-11.947v-33.707l213.333-212.907 63.573 63.573zM405.333 362.667c-106.039 0-192 85.961-192 192s85.961 192 192 192c106.039 0 192-85.961 192-192v0c0-0.076 0-0.166 0-0.256 0-105.897-85.847-191.744-191.744-191.744-0.090 0-0.18 0-0.27 0h0.014z" />
<glyph unicode="&#xe91f;" glyph-name="settings" d="M826.24 406.4c1.76 12.373 2.826 26.762 2.943 41.377l0.001 0.138c-0.118 14.753-1.184 29.142-3.141 43.246l0.197-1.732 89.216 69.973c4.817 3.942 7.867 9.888 7.867 16.546 0 3.879-1.035 7.516-2.845 10.65l0.055-0.103-84.565 146.517c-3.784 6.303-10.583 10.455-18.351 10.455-0.088 0-0.177-0.001-0.265-0.002h0.013c-0.063 0.001-0.138 0.001-0.212 0.001-2.515 0-4.921-0.47-7.133-1.327l0.135 0.046-105.301-42.325c-20.626 16.156-44.174 30.087-69.438 40.754l-2.029 0.761-16.085 112.213c-1.414 10.15-10.037 17.878-20.464 17.878-0.036 0-0.072 0-0.107 0h-169.295c-0.084 0.001-0.184 0.002-0.284 0.002-10.397 0-19-7.684-20.439-17.683l-0.013-0.111-16.043-112.213c-27.283-11.632-50.812-25.547-72.221-42.074l0.754 0.56-105.344 42.368c-2.193 0.731-4.717 1.153-7.34 1.153-0.089 0-0.179 0-0.268-0.001h0.014c-7.746-0.011-14.505-4.223-18.122-10.48l-0.054-0.101-84.608-146.389c-1.833-3.046-2.917-6.722-2.917-10.651 0-6.653 3.107-12.58 7.95-16.409l0.044-0.033 89.259-69.888c-1.743-12.356-2.809-26.744-2.943-41.354l-0.001-0.16c0.135-14.771 1.201-29.159 3.141-43.268l-0.197 1.753-89.259-69.845c-4.817-3.942-7.867-9.888-7.867-16.546 0-3.879 1.035-7.516 2.845-10.65l-0.055 0.103 84.608-146.347c3.768-6.374 10.606-10.582 18.426-10.582 0.062 0 0.124 0 0.186 0.001h-0.009c0.063-0.001 0.138-0.001 0.212-0.001 2.515 0 4.921 0.47 7.133 1.327l-0.135-0.046 105.301 42.325c20.626-16.172 44.174-30.117 69.439-40.796l2.027-0.761 16.085-112.213c1.452-10.11 10.055-17.794 20.452-17.794 0.1 0 0.199 0.001 0.299 0.002h169.244c0.084-0.001 0.184-0.002 0.284-0.002 10.397 0 19 7.684 20.439 17.683l0.013 0.111 16.085 112.213c27.283 11.632 50.812 25.547 72.221 42.074l-0.754-0.56 105.301-42.325c2.262-0.797 4.872-1.265 7.588-1.28h0.007c7.746 0.011 14.505 4.223 18.122 10.48l0.054 0.101 84.565 146.517c1.754 3.031 2.79 6.668 2.79 10.547 0 6.658-3.050 12.604-7.829 16.516l-0.038 0.030zM742.485 478.933c1.354-9.29 2.129-20.020 2.133-30.929v-0.004c0-8.875-0.853-18.219-2.133-30.891l-5.931-47.829 37.632-29.653 45.653-35.584-29.611-51.2-53.717 21.589-43.989 17.792-38.059-28.8c-15.29-11.798-32.685-22.143-51.271-30.27l-1.593-0.621-44.843-18.219-6.784-47.829-8.533-57.173h-59.008l-8.021 57.173-6.784 47.915-44.843 18.219c-19.856 8.4-36.979 18.412-52.6 30.297l0.59-0.43-38.4 29.653-98.645-39.595-29.611 51.2 45.653 35.584 37.632 29.653-5.931 47.829c-1.28 13.141-2.133 22.869-2.133 31.317s0.853 18.219 2.133 30.933l5.931 47.829-37.632 29.653-45.568 35.456 29.611 51.2 53.717-21.589 43.989-17.792 37.973 28.715c15.29 11.798 32.685 22.143 51.271 30.27l1.593 0.621 44.843 18.219 6.784 47.829 8.533 57.173h58.752l8.021-57.173 6.784-47.829 44.928-18.091c19.856-8.4 36.979-18.412 52.6-30.297l-0.59 0.43 38.4-29.653 44.843 18.219 53.717 21.589 29.611-51.2-45.269-36.011-37.632-29.653 5.931-47.829zM512.085 617.387c-0.063 0-0.138 0-0.213 0-93.55 0-169.387-75.837-169.387-169.387s75.837-169.387 169.387-169.387c93.55 0 169.386 75.837 169.387 169.386v0c0 0.051 0 0.111 0 0.171 0 93.455-75.761 169.216-169.216 169.216-0.015 0-0.030 0-0.045 0h0.002zM512.085 363.307c-0.013 0-0.028 0-0.043 0-46.775 0-84.693 37.918-84.693 84.693s37.918 84.693 84.693 84.693c46.775 0 84.693-37.918 84.693-84.693v0c-0.097-46.751-37.982-84.621-84.729-84.693h-0.007z" />
<glyph unicode="&#xe920;" glyph-name="star" d="M512 222.549l264.021-159.289-70.030 300.316 233.244 202.183-307.2 26.055-120.036 283.42-120.036-283.42-307.2-26.055 233.244-202.183-70.030-300.487z" />
<glyph unicode="&#xe921;" glyph-name="star_border" d="M938.667 565.76l-306.773 26.453-119.893 282.453-119.893-282.88-306.773-26.027 232.96-201.813-69.973-299.947 263.68 159.147 263.68-159.147-69.547 299.947zM512 302.933l-160.427-96.853 42.667 182.613-141.653 122.88 186.88 16.213 72.533 171.947 72.96-172.373 186.88-16.213-141.653-122.88 42.667-182.613z" />
<glyph unicode="&#xe922;" glyph-name="transfer" horiz-adv-x="1261" d="M594.839 154.772c-0.112 0.002-0.244 0.003-0.376 0.003-11.634 0-21.089-9.327-21.296-20.911v-20.946h-520.383v670.102h520.445v-20.927c0-12.004 9.731-21.734 21.734-21.734s21.734 9.731 21.734 21.734v0 83.833c-1.107 58.101-48.467 104.776-106.729 104.776-0.661 0-1.322-0.006-1.98-0.018l0.099 0.001h-390.35c-0.504 0.009-1.099 0.013-1.695 0.013-58.261 0-105.62-46.674-106.727-104.669l-0.002-0.104v-795.665c1.005-58.181 48.406-104.959 106.732-104.959 0.595 0 1.188 0.005 1.781 0.015l-0.089-0.001h390.35c0.503-0.009 1.097-0.013 1.692-0.013 58.326 0 105.727 46.779 106.731 104.865l0.001 0.094v83.522c-0.173 11.631-9.642 20.993-21.297 20.993-0.132 0-0.263-0.001-0.395-0.004h0.020zM117.738 908.769h390.35c0.335 0.006 0.731 0.010 1.127 0.010 34.935 0 63.329-28.008 63.951-62.795l0.001-0.058v-20.927h-520.383v20.927c0.624 34.844 29.017 62.851 63.952 62.851 0.353 0 0.705-0.003 1.056-0.009l-0.053 0.001zM508.088-12.831h-390.35c-0.297-0.005-0.648-0.008-0.999-0.008-35.022 0-63.47 28.147-63.955 63.054l-0.001 0.046v20.927h520.445v-20.927c-0.484-34.954-28.932-63.103-63.955-63.103-0.417 0-0.833 0.004-1.248 0.012l0.062-0.001zM277.952 885.606h43.469v-43.469h-43.469zM256.838 53.738h86.938v-43.469h-86.938zM1142.856 950.685h-390.35c-0.504 0.009-1.099 0.013-1.695 0.013-58.261 0-105.62-46.674-106.727-104.669l-0.002-0.104v-83.771c0-12.004 9.731-21.734 21.734-21.734s21.734 9.731 21.734 21.734v0 20.865h520.445v-670.164h-520.445v20.927c0 12.004-9.731 21.734-21.734 21.734s-21.734-9.731-21.734-21.734v0-83.522c1.108-58.099 48.468-104.773 106.729-104.773 0.596 0 1.191 0.005 1.784 0.015l-0.089-0.001h390.35c0.504-0.009 1.099-0.013 1.695-0.013 58.261 0 105.62 46.674 106.727 104.669l0.002 0.104v795.665c-1.108 58.099-48.468 104.773-106.729 104.773-0.596 0-1.191-0.005-1.784-0.015l0.089 0.001zM687.552 824.998v20.927c0.623 34.845 29.016 62.853 63.952 62.853 0.396 0 0.792-0.004 1.187-0.011l-0.059 0.001h390.35c0.335 0.006 0.731 0.010 1.127 0.010 34.935 0 63.329-28.008 63.951-62.795l0.001-0.058v-20.927zM1142.918-12.831h-390.412c-0.297-0.005-0.648-0.008-0.999-0.008-35.022 0-63.47 28.147-63.955 63.054l-0.001 0.046v20.927h520.445v-20.927c-0.484-34.954-28.932-63.103-63.955-63.103-0.417 0-0.833 0.004-1.248 0.012l0.062-0.001zM939.236 885.606h43.469v-43.469h-43.469zM917.005 53.738h86.938v-43.469h-86.938zM695.624 491.345v21.486c0 24.007-19.462 43.469-43.469 43.469v0 43.469h-43.469v-43.469c-24.007 0-43.469-19.462-43.469-43.469v0-43.469c0-24.007 19.462-43.469 43.469-43.469v0h43.469v-43.469h-43.469v21.672h-43.469v-21.672c0-24.007 19.462-43.469 43.469-43.469v0-43.469h43.469v43.469c24.007 0 43.469 19.462 43.469 43.469v0 43.469c0 24.007-19.462 43.469-43.469 43.469v0h-43.469v43.469h43.469v-21.672zM561.244 715.954c-121.299-33.29-208.949-142.568-208.949-272.317 0-70.303 25.733-134.596 68.294-183.974l-0.308 0.366c4.004-4.839 10.011-7.899 16.733-7.899 11.969 0 21.672 9.703 21.672 21.672 0 5.547-2.084 10.607-5.512 14.441l0.018-0.021c-35.838 41.476-57.669 95.922-57.669 155.467 0 131.662 106.733 238.395 238.395 238.395 32.244 0 62.993-6.401 91.046-18.003l-1.583 0.58-29.683-7.949c-9.433-2.485-16.276-10.938-16.276-20.99 0-11.969 9.703-21.672 21.672-21.672 0.046 0 0.091 0 0.137 0h-0.007c1.991 0.008 3.915 0.28 5.743 0.781l-0.154-0.036 83.771 22.417c9.336 2.551 16.085 10.957 16.085 20.94 0 2.006-0.272 3.947-0.782 5.791l0.036-0.152-22.355 83.771c-2.426 9.516-10.92 16.44-21.031 16.44-11.969 0-21.672-9.703-21.672-21.672 0-2.14 0.31-4.208 0.888-6.161l-0.039 0.153 9.439-35.334c-33.744 15.593-73.23 24.688-114.84 24.688-25.993 0-51.157-3.549-75.034-10.189l1.965 0.466zM870.555 311.384c23.691 40.464 37.68 89.101 37.68 141.005 0 69.48-25.068 133.105-66.652 182.325l0.345-0.419c-4.003 4.729-9.944 7.71-16.58 7.71-11.975 0-21.682-9.708-21.682-21.682 0-5.338 1.929-10.226 5.128-14.004l-0.026 0.032c35.021-41.231 56.319-95.071 56.319-153.885 0-131.662-106.733-238.395-238.395-238.395-32.274 0-63.050 6.413-91.123 18.035l1.582-0.58 29.683 7.949c9.334 2.563 16.079 10.973 16.079 20.958 0 11.984-9.715 21.699-21.699 21.699-1.999 0-3.934-0.27-5.772-0.776l0.152 0.036-83.771-22.417c-9.336-2.551-16.085-10.957-16.085-20.94 0-2.006 0.272-3.947 0.782-5.791l-0.036 0.152 22.355-83.771c2.426-9.516 10.92-16.44 21.031-16.44 11.969 0 21.672 9.703 21.672 21.672 0 2.14-0.31 4.208-0.888 6.161l0.039-0.153-9.563 35.769c33.67-15.624 73.075-24.768 114.608-24.839h0.025c26.108 0.009 51.388 3.544 75.392 10.155l-1.992-0.468c73.693 19.939 133.981 67.214 170.55 130.004l0.717 1.334zM939.236 469.672h43.469v-43.469h-43.469zM1012.76 469.672h43.469v-43.469h-43.469zM1099.511 469.672h43.469v-43.469h-43.469zM277.952 469.672h43.469v-43.469h-43.469zM204.49 469.672h43.469v-43.469h-43.469zM117.738 469.672h43.469v-43.469h-43.469z" />
<glyph unicode="&#xe923;" glyph-name="truck" d="M853.333 618.667h-128v170.667h-597.333c-47.070-0.145-85.188-38.264-85.333-85.319v-469.347h85.333c0-70.692 57.308-128 128-128s128 57.308 128 128v0h256c0-70.692 57.308-128 128-128s128 57.308 128 128v0h85.333v213.333zM832 554.667l83.627-106.667h-190.293v106.667zM256 192c-23.564 0-42.667 19.103-42.667 42.667s19.103 42.667 42.667 42.667c23.564 0 42.667-19.103 42.667-42.667v0c0-23.564-19.103-42.667-42.667-42.667v0zM350.72 320c-23.28 26.227-57.080 42.671-94.72 42.671s-71.44-16.444-94.607-42.541l-0.113-0.13h-33.28v384h512v-384zM768 192c-23.564 0-42.667 19.103-42.667 42.667s19.103 42.667 42.667 42.667c23.564 0 42.667-19.103 42.667-42.667v0c0-23.564-19.103-42.667-42.667-42.667v0z" />
<glyph unicode="&#xe924;" glyph-name="users" d="M384 373.333c-99.84 0-298.667-49.92-298.667-149.333v-74.667h597.333v74.667c0 99.413-198.827 149.333-298.667 149.333zM185.173 234.667c57.187 32.938 125.633 52.64 198.625 53.332l0.202 0.002c73.194-0.694 141.64-20.395 200.829-54.394l-2.002 1.060zM384 448c82.475 0 149.333 66.859 149.333 149.333s-66.859 149.333-149.333 149.333c-82.475 0-149.333-66.859-149.333-149.333v0c0-82.475 66.859-149.333 149.333-149.333v0zM384 661.333c35.346 0 64-28.654 64-64s-28.654-64-64-64c-35.346 0-64 28.654-64 64v0c0 35.346 28.654 64 64 64v0zM684.373 370.773c49.306-31.356 81.959-85.077 83.622-146.532l0.005-0.241v-74.667h170.667v74.667c0 86.187-149.333 135.253-254.293 146.773zM640 448c82.475 0 149.333 66.859 149.333 149.333s-66.859 149.333-149.333 149.333v0c-23.312-0.092-45.318-5.596-64.854-15.318l0.854 0.385c26.687-37.396 42.669-84.032 42.669-134.4s-15.982-97.004-43.151-135.112l0.482 0.712c18.682-9.338 40.688-14.841 63.969-14.933h0.031z" />
<glyph unicode="&#xe925;" glyph-name="users_circlepx" d="M533.333 533.333c0 70.692-57.308 128-128 128s-128-57.308-128-128c0-70.692 57.308-128 128-128v0c70.605 0.218 127.782 57.395 128 127.979v0.021zM405.333 490.667c-23.564 0-42.667 19.103-42.667 42.667s19.103 42.667 42.667 42.667c23.564 0 42.667-19.103 42.667-42.667v0c0-23.564-19.103-42.667-42.667-42.667v0zM682.667 405.333c47.128 0 85.333 38.205 85.333 85.333s-38.205 85.333-85.333 85.333c-47.128 0-85.333-38.205-85.333-85.333v0c0-0.089-0.001-0.194-0.001-0.299 0-46.963 38.071-85.035 85.035-85.035 0.105 0 0.21 0 0.315 0.001h-0.016zM511.573 874.24c-235.641 0-426.667-191.025-426.667-426.667s191.025-426.667 426.667-426.667c235.641 0 426.667 191.025 426.667 426.667v0c0 235.641-191.025 426.667-426.667 426.667v0zM249.173 229.547c44.047 29.172 97.99 46.763 156.005 47.359l0.155 0.001c2.987 0 6.4-0.427 9.813-0.427 12.505 31.464 31.409 58.042 55.252 79.173l0.215 0.187c-19.394 3.903-41.897 6.367-64.894 6.821l-0.386 0.006c-75.132-1.050-144.775-23.662-203.272-61.908l1.459 0.895c-20.998 42.645-33.28 92.831-33.28 145.885 0 0.162 0 0.324 0 0.487v-0.025c0 0.151 0 0.33 0 0.509 0 188.513 152.82 341.333 341.333 341.333s341.333-152.82 341.333-341.333c0-52.381-11.799-102.006-32.884-146.362l0.884 2.067c-39.896 22.358-87.357 35.977-137.899 37.114l-0.341 0.006c-64.853 0-192-34.56-192-115.2v-118.613c-97.365 5.702-182.961 51.733-241.051 121.48l-0.443 0.547z" />
<glyph unicode="&#xe926;" glyph-name="wallet" d="M896 649.387v97.28c-0.145 47.070-38.264 85.188-85.319 85.333h-597.347c-47.128 0-85.333-38.205-85.333-85.333v0-597.333c0-47.128 38.205-85.333 85.333-85.333v0h597.333c47.070 0.145 85.188 38.264 85.333 85.319v97.294c25.542 14.943 42.472 42.166 42.667 73.359v256.028c-0.194 31.22-17.125 58.443-42.264 73.169l-0.403 0.218zM853.333 576v-256h-298.667v256zM213.333 149.333v597.333h597.333v-85.333h-256c-47.070-0.145-85.188-38.264-85.333-85.319v-256.014c0.145-47.070 38.264-85.188 85.319-85.333h256.014v-85.333zM746.667 448c0-35.346-28.654-64-64-64s-64 28.654-64 64c0 35.346 28.654 64 64 64s64-28.654 64-64z" />
<glyph unicode="&#xe927;" glyph-name="cross" d="M512 910.222c-251.362 0-455.111-203.749-455.111-455.111s203.749-455.111 455.111-455.111 455.111 203.749 455.111 455.111-203.749 455.111-455.111 455.111zM512 113.778c-188.222 0-341.333 153.111-341.333 341.333s153.111 341.333 341.333 341.333 341.333-153.111 341.333-341.333-153.111-341.333-341.333-341.333zM666.834 609.166l-0.779 0.779c-21.111 21.111-55.333 21.111-76.444 0l-77.611-77.611-77.611 77.611c-21.111 21.111-55.333 21.111-76.444 0l-0.779-0.779c-21.111-21.111-21.111-55.333 0-76.444l77.611-77.611-77.611-77.611c-21.111-21.111-21.111-55.333 0-76.444l0.779-0.779c21.111-21.111 55.333-21.111 76.444 0l77.611 77.611 77.611-77.611c21.111-21.111 55.333-21.111 76.444 0l0.779 0.779c21.111 21.111 21.111 55.333 0 76.444l-77.611 77.611 77.611 77.611c21.111 21.111 21.111 55.333 0 76.444z" />
<glyph unicode="&#xea0a;" glyph-name="plus" d="M992 576h-352v352c0 17.672-14.328 32-32 32h-192c-17.672 0-32-14.328-32-32v-352h-352c-17.672 0-32-14.328-32-32v-192c0-17.672 14.328-32 32-32h352v-352c0-17.672 14.328-32 32-32h192c17.672 0 32 14.328 32 32v352h352c17.672 0 32 14.328 32 32v192c0 17.672-14.328 32-32 32z" />
<glyph unicode="&#xea0b;" glyph-name="minus" d="M0 544v-192c0-17.672 14.328-32 32-32h960c17.672 0 32 14.328 32 32v192c0 17.672-14.328 32-32 32h-960c-17.672 0-32-14.328-32-32z" />
</font>
</defs>
</svg>
