<svg xmlns="http://www.w3.org/2000/svg" width="16.543" height="19.5" viewBox="0 0 16.543 19.5">
  <g id="Group_7594" data-name="Group 7594" transform="translate(0.25 0.25)">
    <path id="Path_22407" data-name="Path 22407" d="M584.866,325.147c0-.716,1.712-.818,2.207,0l.949-.439-.087-.093a1.778,1.778,0,0,0-1.52-1.022V323H585.4v.591c-1.013.152-1.669.729-1.669,1.556,0,2.226,3.28,1.106,3.28,2.2,0,.841-2.035,1.013-2.51-.1l-1.032.437a2.083,2.083,0,0,0,1.93,1.369v.633h1.013v-.667c1.013-.095,1.738-.637,1.738-1.667C588.154,325.06,584.866,326.134,584.866,325.147Z" transform="translate(-579.898 -320.411)" fill="#2a2a2a" stroke="#2a2a2a" stroke-width="0.5"/>
    <path id="Path_22408" data-name="Path 22408" d="M581.871,316.355a1.5,1.5,0,0,0-1.621-1.315h-2.628a5.875,5.875,0,0,0-5.839-4.817,5.946,5.946,0,1,0,5.952,5.953c0-.045,0-.123,0-.123h2.519c.318,0,.608.149.608.3v.962c0,.152-.29.357-.608.357h-1.62v1.013h1.99a.29.29,0,0,1,.238.3v.962a.366.366,0,0,1-.238.357h-3.814v1.013h3.814a.29.29,0,0,1,.238.3c0,.813.088,1.319-.3,1.319h-7.666c-.079,0-.195-.2-.195-.405h-1.013a1.318,1.318,0,0,0,.291.856c-.285.373-.232.753-.232,1.9a1.264,1.264,0,0,0,.258.766c-.318.42-.258.7-.258,1.868a1.248,1.248,0,0,0,1.213,1.3h7.6a1.335,1.335,0,0,0,1.316-1.3c0-1.168.059-1.448-.259-1.868.318-.42.259-.7.259-1.868a1.265,1.265,0,0,0-.262-.77c.321-.45.262-.8.262-1.794a1.43,1.43,0,0,0-.264-.836c.325-.451.264-.808.264-1.8a1.422,1.422,0,0,0-.3-.885C581.939,317.671,581.871,317.363,581.871,316.355ZM571.783,321.1a4.939,4.939,0,1,1,4.939-4.939A4.944,4.944,0,0,1,571.783,321.1Zm9.076,4.217a.259.259,0,0,1-.259.259c-7.988,0-7.845.106-7.845-.259v-1.1a.259.259,0,0,1,.259-.259c7.988,0,7.845-.106,7.845.259Zm0,2.634a.259.259,0,0,1-.259.259c-7.988,0-7.845.106-7.845-.259v-1.1a.259.259,0,0,1,.259-.259c7.988,0,7.845-.106,7.845.259Z" transform="translate(-565.831 -310.223)" fill="#2a2a2a" stroke="#2a2a2a" stroke-width="0.5"/>
  </g>
</svg>
