<svg id="withdrawRequest" xmlns="http://www.w3.org/2000/svg" width="24" height="24" viewBox="0 0 24 24">
  <path id="Path_22487" data-name="Path 22487" d="M24,0H0V24H24Z" fill="none"/>
  <path id="Path_22488" data-name="Path 22488" d="M12,14H8V10h4V7l5,5-5,5ZM5,3H9.18a2.988,2.988,0,0,1,5.64,0H19a1.752,1.752,0,0,1,.4.04,2.021,2.021,0,0,1,1.44,1.19A1.926,1.926,0,0,1,21,5V19a2.052,2.052,0,0,1-.16.78,2.119,2.119,0,0,1-.43.64,2.008,2.008,0,0,1-1.01.55A2.6,2.6,0,0,1,19,21H5a2.006,2.006,0,0,1-2-2V5A2.006,2.006,0,0,1,5,3Zm7-.25a.75.75,0,1,0,.75.75A.755.755,0,0,0,12,2.75ZM5,19H19V5H5Z" transform="translate(0)" fill="#777"/>
</svg>
