<svg xmlns="http://www.w3.org/2000/svg" xmlns:xlink="http://www.w3.org/1999/xlink" width="35.311" height="30.708" viewBox="0 0 35.311 30.708">
  <defs>
    <clipPath id="clip-path">
      <path id="Intersection_206" data-name="Intersection 206" d="M2.523,8.406A2.523,2.523,0,0,1,0,5.885V2.521A2.523,2.523,0,0,1,2.523,0H7.566a.841.841,0,1,1,0,1.681H2.523a.841.841,0,0,0-.841.84V5.885a.841.841,0,0,0,.841.84H8.408V8.406Z" fill="none"/>
    </clipPath>
    <clipPath id="clip-path-2">
      <path id="Intersection_207" data-name="Intersection 207" d="M31.109,21.859a.841.841,0,1,1,0-1.681h1.68a.841.841,0,0,0,.841-.841V17.656a.84.84,0,0,0-.841-.84H2.523a.84.84,0,0,0-.841.84v1.681a.841.841,0,0,0,.841.841h3a.841.841,0,1,1,0,1.681h-3A2.524,2.524,0,0,1,0,19.337V17.656a2.524,2.524,0,0,1,2.523-2.523h17.8a2.529,2.529,0,0,1-.142-.84V2.523A2.523,2.523,0,0,1,22.7,0a2.448,2.448,0,0,1,.363.027L31.788,1.3a2.521,2.521,0,0,1,2.087,1.893l1.363,5.546a2.59,2.59,0,0,1,.073.6v4.958a2.509,2.509,0,0,1-.643,1.681,2.51,2.51,0,0,1,.643,1.681v1.681a2.524,2.524,0,0,1-2.523,2.523ZM21.859,2.523v11.77a.84.84,0,0,0,.84.84H32.788a.84.84,0,0,0,.841-.84V9.335a.9.9,0,0,0-.024-.2L32.242,3.591a.841.841,0,0,0-.7-.633L22.82,1.69a1.058,1.058,0,0,0-.121-.008A.84.84,0,0,0,21.859,2.523ZM12.895,21.859a.841.841,0,0,1,0-1.681H24.377a.841.841,0,1,1,0,1.681Z" fill="none"/>
    </clipPath>
    <clipPath id="clip-path-3">
      <path id="Intersection_208" data-name="Intersection 208" d="M0,4.2a4.2,4.2,0,1,1,4.2,4.2A4.2,4.2,0,0,1,0,4.2Zm1.681,0A2.522,2.522,0,1,0,4.2,1.681,2.524,2.524,0,0,0,1.681,4.2Z" fill="none"/>
    </clipPath>
    <clipPath id="clip-path-4">
      <path id="Intersection_209" data-name="Intersection 209" d="M0,4.2a4.2,4.2,0,1,1,4.2,4.2A4.2,4.2,0,0,1,0,4.2Zm1.681,0A2.522,2.522,0,1,0,4.2,1.681,2.522,2.522,0,0,0,1.681,4.2Z" fill="none"/>
    </clipPath>
  </defs>
  <g id="car2" transform="translate(-90 -401.104)">
    <g id="Group_4421" data-name="Group 4421" transform="translate(115.222 408.273)">
      <g id="Group_4420" data-name="Group 4420" clip-path="url(#clip-path)">
        <rect id="Rectangle_2721" data-name="Rectangle 2721" width="25.221" height="25.221" transform="translate(-8.407 -8.408)" fill="#ffc20f"/>
      </g>
    </g>
    <g id="Group_4423" data-name="Group 4423" transform="translate(90 404.909)">
      <g id="Group_4422" data-name="Group 4422" transform="translate(0 0)" clip-path="url(#clip-path-2)">
        <rect id="Rectangle_2723" data-name="Rectangle 2723" width="52.124" height="38.673" transform="translate(-8.407 -8.406)" fill="#2a2a2a"/>
      </g>
    </g>
    <g id="Group_4425" data-name="Group 4425" transform="translate(113.541 423.405)">
      <g id="Group_4424" data-name="Group 4424" transform="translate(0 0)" clip-path="url(#clip-path-3)">
        <rect id="Rectangle_2725" data-name="Rectangle 2725" width="25.221" height="25.221" transform="translate(-8.407 -8.408)" fill="#2a2a2a"/>
      </g>
    </g>
    <g id="Group_4427" data-name="Group 4427" transform="translate(95.045 423.405)">
      <g id="Group_4426" data-name="Group 4426" transform="translate(0 0)" clip-path="url(#clip-path-4)">
        <rect id="Rectangle_2727" data-name="Rectangle 2727" width="25.221" height="25.221" transform="translate(-8.408 -8.408)" fill="#2a2a2a"/>
      </g>
    </g>
    <g id="Group_5663" data-name="Group 5663" transform="translate(91.384 401.804)">
      <g id="Path_9401" data-name="Path 9401" transform="translate(-123.228 -773.553)" fill="#2a2a2a" stroke-linejoin="round">
        <path d="M 141.7288818359375 793.1400146484375 L 141.3788757324219 793.1400146484375 L 140.5051727294922 793.1400146484375 L 140.1551818847656 793.1400146484375 L 140.1551818847656 792.7900390625 L 140.1551818847656 775.2810668945313 C 140.1551818847656 775.0029296875 139.9287261962891 774.7766723632813 139.650390625 774.7766723632813 L 124.9567565917969 774.7766723632813 C 124.6782531738281 774.7766723632813 124.4516830444336 775.0029296875 124.4516830444336 775.2810668945313 L 124.4516830444336 792.7900390625 L 124.4516830444336 793.1400146484375 L 124.1016845703125 793.1400146484375 L 123.2279891967773 793.1400146484375 L 122.8779830932617 793.1400146484375 L 122.8779830932617 792.7900390625 L 122.8779830932617 775.2810668945313 C 122.8779830932617 774.1351928710938 123.8105163574219 773.2030029296875 124.9567565917969 773.2030029296875 L 139.650390625 773.2030029296875 C 140.7964630126953 773.2030029296875 141.7288818359375 774.1351928710938 141.7288818359375 775.2810668945313 L 141.7288818359375 792.7900390625 L 141.7288818359375 793.1400146484375 Z" stroke="none"/>
        <path d="M 141.3788757324219 792.7900390625 L 141.3788757324219 775.2810668945313 C 141.3788757324219 774.3282470703125 140.6033172607422 773.552978515625 139.650390625 773.552978515625 L 124.9567565917969 773.552978515625 C 124.0035400390625 773.552978515625 123.2279891967773 774.3282470703125 123.2279891967773 775.2810668945313 L 123.2279891967773 792.7900390625 L 124.1016845703125 792.7900390625 L 124.1016845703125 775.2810668945313 C 124.1016845703125 774.8099365234375 124.4849548339844 774.4266967773438 124.9567565917969 774.4266967773438 L 139.650390625 774.4266967773438 C 140.1219024658203 774.4266967773438 140.5051727294922 774.8099365234375 140.5051727294922 775.2810668945313 L 140.5051727294922 792.7900390625 L 141.3788757324219 792.7900390625 M 141.3788757324219 793.4900512695313 L 140.5051727294922 793.4900512695313 C 140.1185760498047 793.4900512695313 139.80517578125 793.1766357421875 139.80517578125 792.7900390625 L 139.80517578125 775.2810668945313 C 139.80517578125 775.1959228515625 139.7357330322266 775.126708984375 139.650390625 775.126708984375 L 124.9567565917969 775.126708984375 C 124.8712463378906 775.126708984375 124.8016891479492 775.1959228515625 124.8016891479492 775.2810668945313 L 124.8016891479492 792.7900390625 C 124.8016891479492 793.1766357421875 124.4882888793945 793.4900512695313 124.1016845703125 793.4900512695313 L 123.2279891967773 793.4900512695313 C 122.8413848876953 793.4900512695313 122.5279846191406 793.1766357421875 122.5279846191406 792.7900390625 L 122.5279846191406 775.2810668945313 C 122.5279846191406 773.9421997070313 123.6175231933594 772.8529663085938 124.9567565917969 772.8529663085938 L 139.650390625 772.8529663085938 C 140.9894561767578 772.8529663085938 142.0788726806641 773.9421997070313 142.0788726806641 775.2810668945313 L 142.0788726806641 792.7900390625 C 142.0788726806641 793.1766357421875 141.7654724121094 793.4900512695313 141.3788757324219 793.4900512695313 Z" stroke="none" fill="#2a2a2a"/>
      </g>
    </g>
  </g>
</svg>
