<svg id="check-doc" xmlns="http://www.w3.org/2000/svg" width="25.498" height="31" viewBox="0 0 25.498 31">
  <g id="Group_7510" data-name="Group 7510" transform="translate(0 0)">
    <path id="Path_22432" data-name="Path 22432" d="M600,541.115l-5.036-5.326a.994.994,0,0,0-.723-.312H575.77a1,1,0,0,0-.995.995v29.01a1,1,0,0,0,.995.995h23.508a1,1,0,0,0,1-.995V541.8A1,1,0,0,0,600,541.115Zm-23.236,23.372v-27.02h16.009v4.974a1,1,0,0,0,.995.995h4.515v21.051Z" transform="translate(-574.775 -535.477)" fill="#ffc20f"/>
    <rect id="Rectangle_2762" data-name="Rectangle 2762" width="11.129" height="2.266" transform="translate(5.217 6.791)" fill="#ffc20f"/>
  </g>
  <path id="Path_22431" data-name="Path 22431" d="M842.666,780.172a1.984,1.984,0,0,1,2.865-.167,2.141,2.141,0,0,1,.162,2.958l-10.295,11.9a1.988,1.988,0,0,1-3.027,0l-5.479-6.244a2.143,2.143,0,0,1,.162-2.959,1.984,1.984,0,0,1,2.865.168l3.966,4.493Z" transform="translate(-822.6 -768.403)" fill="#ffc20f"/>
</svg>
