<svg id="blue-doc" xmlns="http://www.w3.org/2000/svg" width="25.645" height="31.178" viewBox="0 0 25.645 31.178">
  <path id="Path_22432" data-name="Path 22432" d="M600.146,541.147l-5.065-5.357a1,1,0,0,0-.727-.313H575.776a1,1,0,0,0-1,1v29.177a1,1,0,0,0,1,1h23.643a1,1,0,0,0,1-1v-23.82A1,1,0,0,0,600.146,541.147Zm-23.37,23.507V537.478h16.1v5a1,1,0,0,0,1,1h4.541v21.172Z" transform="translate(-574.775 -535.477)" fill="#1a7bff"/>
  <path id="Path_22433" data-name="Path 22433" d="M622.389,592.233a1.205,1.205,0,0,0-1.205,1.205v3.448a1.205,1.205,0,1,0,2.411,0v-3.448A1.205,1.205,0,0,0,622.389,592.233Z" transform="translate(-602.927 -571.736)" fill="#1a7bff"/>
  <path id="Path_22434" data-name="Path 22434" d="M612.265,574.237a4.426,4.426,0,0,0-4.421,4.421v8.908a1.206,1.206,0,0,0,1.816,1.039l3.215-1.891a1.205,1.205,0,1,0-1.222-2.078l-1.4.823V582.59a4.419,4.419,0,1,0,2.01-8.353Z" transform="translate(-595.691 -562.722)" fill="#1a7bff"/>
  <rect id="Rectangle_2762" data-name="Rectangle 2762" width="11.84" height="2.41" transform="translate(5.013 6.799)" fill="#1a7bff"/>
  <rect id="Rectangle_2763" data-name="Rectangle 2763" width="9.381" height="2.41" transform="translate(7.961 11.413)" fill="#1a7bff"/>
  <rect id="Rectangle_2764" data-name="Rectangle 2764" width="7.526" height="2.41" transform="translate(5.364 16.027)" fill="#1a7bff"/>
  <rect id="Rectangle_2765" data-name="Rectangle 2765" width="6.861" height="2.41" transform="translate(5.407 20.641)" fill="#1a7bff"/>
</svg>
