<svg id="manegar" xmlns="http://www.w3.org/2000/svg" width="28.097" height="36.471" viewBox="0 0 28.097 36.471">
  <path id="Path_22423" data-name="Path 22423" d="M154.608,378.5l-1.452,5.51,3.11,4.347,3.107-4.545-1.6-5.312Z" transform="translate(-142.325 -351.89)" fill="#fe3972"/>
  <path id="Path_22424" data-name="Path 22424" d="M152.4,361.9a12.76,12.76,0,0,0-6.462-4.86.989.989,0,0,0-.94.2c-.026.023-2.616,2.279-5.287,2.279h-.134c-2.669,0-5.235-2.253-5.26-2.275a.988.988,0,0,0-.978-.2,13.461,13.461,0,0,0-6.382,4.982c-1.535,2.438-1.276,6.787-1.264,6.971a.986.986,0,0,0,.984.922h6.778v-1.97h-5.817a10.563,10.563,0,0,1,.986-4.872,11.321,11.321,0,0,1,4.866-3.969A12.9,12.9,0,0,0,136.908,361l.8,2.5h3.626l.915-2.454a12.955,12.955,0,0,0,3.587-1.947,10.641,10.641,0,0,1,4.9,3.851,11.33,11.33,0,0,1,1.058,4.975h-6.075v1.97h7.058a.986.986,0,0,0,.984-.945C153.765,368.766,153.927,364.33,152.4,361.9Z" transform="translate(-125.669 -338.859)" fill="#fe3972"/>
  <path id="Path_22425" data-name="Path 22425" d="M150.367,329.51a7.049,7.049,0,0,0,7.042-7.042V318a7.042,7.042,0,1,0-14.084,0v4.463A7.05,7.05,0,0,0,150.367,329.51Zm-5.072-11.4a6.556,6.556,0,0,1,3.861.171,12.938,12.938,0,0,0,3.643.648,7.073,7.073,0,0,0,2.639-.525v4.066a5.072,5.072,0,0,1-10.144,0Z" transform="translate(-136.368 -310.963)" fill="#fe3972"/>
</svg>
