<svg xmlns="http://www.w3.org/2000/svg" width="35.195" height="31.527" viewBox="0 0 35.195 31.527">
  <path id="money" d="M13.3,31.422.4,24.09a.8.8,0,0,1,.787-1.384l12.48,7.1,5.491-3.459a.8.8,0,1,1,.849,1.348L14.115,31.4a.795.795,0,0,1-.818.019Zm0-3.186L.4,20.9A.8.8,0,0,1,1.19,19.52l12.48,7.1,5.491-3.459a.8.8,0,0,1,.849,1.348l-5.894,3.712a.795.795,0,0,1-.818.019Zm8.292-2.027a.8.8,0,0,1-.412-.7V16.418L9.1,9.551,2.346,13.805,13.67,20.244l5.491-3.459a.8.8,0,1,1,.849,1.348l-5.894,3.713a.8.8,0,0,1-.818.018L.4,14.532a.8.8,0,0,1-.031-1.366L8.655,7.949l.006,0L12.8,5.34l.005,0L21.081.122A.8.8,0,0,1,21.9.1L34.792,7.435A.8.8,0,0,1,34.823,8.8l-5.895,3.713a.8.8,0,0,1-.848-1.348l4.769-3L21.526,1.724,14.771,5.979,26.5,12.649a.779.779,0,0,1,.088.058l.016.012a.719.719,0,0,1,.061.053l.014.013a.87.87,0,0,1,.064.072l.006.01a.562.562,0,0,1,.038.054l.008.014.015.026c.011.021.021.041.03.062l.011.024a.8.8,0,0,1,.03.088h0a.752.752,0,0,1,.019.1c0,.006,0,.013,0,.019,0,.027,0,.053.005.08,0,0,0,.009,0,.014V22.9a.8.8,0,0,1-.372.673L22.4,26.186a.8.8,0,0,1-.809.023ZM10.63,8.588l11.737,6.674a.8.8,0,0,1,.4.693V24.07l2.549-1.606V14.788l-.9.564a.788.788,0,0,1-.423.123A.8.8,0,0,1,23.575,14l.991-.625L13.243,6.942ZM13.3,25.05.4,17.719a.8.8,0,0,1,.787-1.385l12.48,7.1,5.491-3.459a.8.8,0,1,1,.849,1.348l-5.894,3.712a.795.795,0,0,1-.818.019ZM27.83,21.823a.8.8,0,0,1,.25-1.1l5.894-3.712a.8.8,0,0,1,.848,1.348l-5.895,3.713a.8.8,0,0,1-1.1-.25Zm0-3.186a.8.8,0,0,1,.25-1.1l5.894-3.712a.8.8,0,0,1,.848,1.348l-5.895,3.713a.8.8,0,0,1-1.1-.249Zm0-3.186a.8.8,0,0,1,.25-1.1l5.894-3.713a.8.8,0,0,1,.848,1.348L28.929,15.7a.788.788,0,0,1-.423.123A.8.8,0,0,1,27.83,15.451Z" fill="#2bbe65"/>
</svg>
