<svg id="settings" xmlns="http://www.w3.org/2000/svg" width="24" height="24" viewBox="0 0 24 24">
  <path id="Path_2001" data-name="Path 2001" d="M0,0H24V24H0Z" fill="none"/>
  <path id="Path_2002" data-name="Path 2002" d="M19.279,12.9a7.744,7.744,0,0,0,.069-.973,7.744,7.744,0,0,0-.069-.973L21.37,9.314a.5.5,0,0,0,.119-.635L19.507,5.245A.5.5,0,0,0,19.071,5a.463.463,0,0,0-.169.03l-2.468.992a7.24,7.24,0,0,0-1.675-.973l-.377-2.63A.484.484,0,0,0,13.9,2H9.932a.484.484,0,0,0-.486.417L9.07,5.047a7.613,7.613,0,0,0-1.675.973L4.926,5.027A.561.561,0,0,0,4.748,5a.491.491,0,0,0-.426.248L2.339,8.679a.49.49,0,0,0,.119.635L4.55,10.952a7.881,7.881,0,0,0-.069.973,7.881,7.881,0,0,0,.069.973L2.458,14.535a.5.5,0,0,0-.119.635L4.322,18.6a.5.5,0,0,0,.436.248.463.463,0,0,0,.169-.03l2.468-.992A7.24,7.24,0,0,0,9.07,18.8l.377,2.63a.484.484,0,0,0,.486.417H13.9a.484.484,0,0,0,.486-.417l.377-2.63a7.613,7.613,0,0,0,1.675-.973l2.468.992a.561.561,0,0,0,.178.03.491.491,0,0,0,.426-.248l1.982-3.434a.5.5,0,0,0-.119-.635Zm-1.963-1.7a5.309,5.309,0,0,1,.05.725c0,.208-.02.427-.05.724l-.139,1.121.882.695,1.07.834-.694,1.2-1.259-.506-1.031-.417-.892.675a5.8,5.8,0,0,1-1.239.724l-1.051.427-.159,1.121-.2,1.34H11.221l-.188-1.34L10.874,17.4l-1.051-.427a5.622,5.622,0,0,1-1.219-.7l-.9-.695L6.651,16l-1.259.506-.694-1.2,1.07-.834.882-.695-.139-1.121c-.03-.308-.05-.536-.05-.734s.02-.427.05-.725l.139-1.121-.882-.695L4.7,8.55l.694-1.2,1.259.506,1.031.417L8.574,7.6a5.8,5.8,0,0,1,1.239-.724l1.051-.427.159-1.121.2-1.34H12.6l.188,1.34.159,1.121L14,6.873a5.622,5.622,0,0,1,1.219.7l.9.695,1.051-.427,1.259-.506.694,1.2-1.061.844-.882.695.139,1.121Zm-5.4-3.245a3.97,3.97,0,1,0,3.965,3.97A3.966,3.966,0,0,0,11.914,7.955Zm0,5.955A1.985,1.985,0,1,1,13.9,11.925,1.989,1.989,0,0,1,11.914,13.91Z" transform="translate(0.086 0.075)" fill="#2a2a2a"/>
</svg>
