<svg xmlns="http://www.w3.org/2000/svg" width="20.3" height="16.49" viewBox="0 0 20.3 16.49">
  <g id="transfer" transform="translate(0.15 0.15)">
    <path id="Path_19525" data-name="Path 19525" d="M11.429,20.817a.343.343,0,0,0-.349.337v.337H2.7V10.7h8.381v.337a.349.349,0,0,0,.7,0V9.687A1.719,1.719,0,0,0,10.032,8H3.746A1.719,1.719,0,0,0,2,9.687V22.5A1.719,1.719,0,0,0,3.746,24.19h6.286A1.719,1.719,0,0,0,11.778,22.5V21.155A.343.343,0,0,0,11.429,20.817ZM3.746,8.675h6.286a1.03,1.03,0,0,1,1.048,1.012v.337H2.7V9.687A1.03,1.03,0,0,1,3.746,8.675Zm6.286,14.841H3.746A1.03,1.03,0,0,1,2.7,22.5v-.337h8.381V22.5A1.03,1.03,0,0,1,10.032,23.516Z" transform="translate(-2 -8)" fill="#2a2a2a" stroke="#2a2a2a" stroke-width="0.3"/>
    <path id="Path_19526" data-name="Path 19526" d="M15,11h.7v.7H15Z" transform="translate(-10.674 -9.952)" fill="#2a2a2a" stroke="#2a2a2a" stroke-width="0.3"/>
    <path id="Path_19527" data-name="Path 19527" d="M14,51h1.4v.7H14Z" transform="translate(-10.014 -36.556)" fill="#2a2a2a" stroke="#2a2a2a" stroke-width="0.3"/>
    <path id="Path_19528" data-name="Path 19528" d="M42.032,8H35.746A1.719,1.719,0,0,0,34,9.687v1.349a.349.349,0,0,0,.7,0V10.7h8.381V21.492H34.7v-.337a.349.349,0,0,0-.7,0V22.5a1.719,1.719,0,0,0,1.746,1.687h6.286A1.719,1.719,0,0,0,43.778,22.5V9.687A1.719,1.719,0,0,0,42.032,8ZM34.7,10.024V9.687a1.03,1.03,0,0,1,1.048-1.012h6.286a1.03,1.03,0,0,1,1.048,1.012v.337Zm7.333,13.492H35.746A1.03,1.03,0,0,1,34.7,22.5v-.337h8.381V22.5A1.03,1.03,0,0,1,42.032,23.516Z" transform="translate(-23.778 -8)" fill="#2a2a2a" stroke="#2a2a2a" stroke-width="0.3"/>
    <path id="Path_19529" data-name="Path 19529" d="M47,11h.7v.7H47Z" transform="translate(-32.025 -9.952)" fill="#2a2a2a" stroke="#2a2a2a" stroke-width="0.3"/>
    <path id="Path_19530" data-name="Path 19530" d="M46,51h1.4v.7H46Z" transform="translate(-31.383 -36.556)" fill="#2a2a2a" stroke="#2a2a2a" stroke-width="0.3"/>
    <path id="Path_19531" data-name="Path 19531" d="M31.1,26.746V26.4a.7.7,0,0,0-.7-.7h0l0-.7h-.7l0,.7a.7.7,0,0,0-.7.7v.7a.7.7,0,0,0,.7.7h.7v.7h-.7v-.349H29v.349a.7.7,0,0,0,.7.7l0,.7h.7l0-.7h0a.7.7,0,0,0,.7-.7v-.7a.7.7,0,0,0-.7-.7h-.7v-.7h.7v.349Z" transform="translate(-20.048 -19.349)" fill="#2a2a2a" stroke="#2a2a2a" stroke-width="0.3"/>
    <path id="Path_19532" data-name="Path 19532" d="M22.364,17.995a4.54,4.54,0,0,0-2.27,7.342.349.349,0,1,0,.53-.454,3.839,3.839,0,0,1,4.351-6.062l-.478.128a.349.349,0,0,0,.089.687.354.354,0,0,0,.09-.012l1.349-.361a.349.349,0,0,0,.247-.428l-.36-1.349a.349.349,0,1,0-.674.181l.152.569A4.5,4.5,0,0,0,22.364,17.995Z" transform="translate(-13.476 -14.215)" fill="#2a2a2a" stroke="#2a2a2a" stroke-width="0.3"/>
    <path id="Path_19533" data-name="Path 19533" d="M30.812,28.567a4.552,4.552,0,0,0-.461-5.2.349.349,0,1,0-.534.45,3.839,3.839,0,0,1-4.374,6.036l.478-.128a.349.349,0,1,0-.181-.675l-1.349.361a.349.349,0,0,0-.247.428l.36,1.349a.349.349,0,1,0,.674-.181l-.154-.576a4.494,4.494,0,0,0,1.846.4,4.567,4.567,0,0,0,1.182-.156,4.51,4.51,0,0,0,2.758-2.115Z" transform="translate(-16.943 -18.272)" fill="#2a2a2a" stroke="#2a2a2a" stroke-width="0.3"/>
    <path id="Path_19534" data-name="Path 19534" d="M47,31h.7v.7H47Z" transform="translate(-32.025 -23.254)" fill="#2a2a2a" stroke="#2a2a2a" stroke-width="0.3"/>
    <path id="Path_19535" data-name="Path 19535" d="M51,31h.7v.7H51Z" transform="translate(-34.841 -23.254)" fill="#2a2a2a" stroke="#2a2a2a" stroke-width="0.3"/>
    <path id="Path_19536" data-name="Path 19536" d="M55,31h.7v.7H55Z" transform="translate(-37.444 -23.254)" fill="#2a2a2a" stroke="#2a2a2a" stroke-width="0.3"/>
    <path id="Path_19537" data-name="Path 19537" d="M15,31h.7v.7H15Z" transform="translate(-10.674 -23.254)" fill="#2a2a2a" stroke="#2a2a2a" stroke-width="0.3"/>
    <path id="Path_19538" data-name="Path 19538" d="M11,31h.7v.7H11Z" transform="translate(-7.857 -23.254)" fill="#2a2a2a" stroke="#2a2a2a" stroke-width="0.3"/>
    <path id="Path_19539" data-name="Path 19539" d="M7,31h.7v.7H7Z" transform="translate(-5.254 -23.254)" fill="#2a2a2a" stroke="#2a2a2a" stroke-width="0.3"/>
  </g>
</svg>
