<svg xmlns="http://www.w3.org/2000/svg" xmlns:xlink="http://www.w3.org/1999/xlink" width="30" height="19.5" viewBox="0 0 30 19.5">
  <defs>
    <clipPath id="clip-path">
      <rect id="Rectangle_5317" data-name="Rectangle 5317" width="30" height="19.5" rx="4" fill="#fff"/>
    </clipPath>
    <clipPath id="clip-path-2">
      <rect id="SVGID" width="33.207" height="19.371" fill="none"/>
    </clipPath>
  </defs>
  <g id="Mask_Group_41" data-name="Mask Group 41" clip-path="url(#clip-path)">
    <g id="Group_7624" data-name="Group 7624" transform="translate(-1.5)">
      <g id="Group_7623" data-name="Group 7623">
        <g id="Group_7622" data-name="Group 7622" clip-path="url(#clip-path-2)">
          <rect id="Rectangle_5316" data-name="Rectangle 5316" width="33.207" height="19.371" fill="#3d9635"/>
          <g id="Group_7621" data-name="Group 7621">
            <g id="Group_7620" data-name="Group 7620" clip-path="url(#clip-path-2)">
              <path id="Path_22450" data-name="Path 22450" d="M111.829,1562.62c-.033.452-.074,1.248.311,1.33.465.045.208-.787.377-.938.032-.074.091-.075.1.019v.706a.337.337,0,0,0,.264.344c.122-.009.2,0,.251.114q.028.61.057,1.22s.283.081.3-.687a7.216,7.216,0,0,1-.029-.915c0-.087.112-.092.188-.05.121.086.176.191.364.149.288-.079.46-.219.465-.44a1.945,1.945,0,0,0-.131-.63c.013-.037-.056-.136-.043-.175.052.081.13.074.148,0a.63.63,0,0,0-.248-.382c-.1-.09-.251-.071-.306.116a1.017,1.017,0,0,0,.234.679.653.653,0,0,1,.059.339.182.182,0,0,1-.236-.046s-.229-.171-.229-.209a.818.818,0,0,0-.021-.542.733.733,0,0,0-.151-.3c-.057-.061-.135-.061-.172,0a1.025,1.025,0,0,0,.019.72c.053.155.133.253.1.253-.032.088-.1.067-.144-.034a2.5,2.5,0,0,1-.081-.661c-.02-.175-.043-.546-.157-.64-.069-.1-.173-.049-.21.038a3.19,3.19,0,0,0,.012.5,5.523,5.523,0,0,1,.141.812c.011.383-.222.166-.211-.024a1.74,1.74,0,0,0-.008-.734c-.037-.1-.082-.122-.174-.106-.073,0-.261.2-.313.54a2.972,2.972,0,0,0-.064.33c-.026.176-.141.3-.222-.025-.07-.236-.113-.814-.23-.678" transform="translate(-102.431 -1557.128)" fill="#fff"/>
              <path id="Path_22451" data-name="Path 22451" d="M113.184,1567.419c-.41.2-.807.387-1.211.582a1.231,1.231,0,0,1,.958-.777c.248.007.186.1.252.2" transform="translate(-102.522 -1560.071)" fill="#fff"/>
              <path id="Path_22452" data-name="Path 22452" d="M115.459,1561.916c-.023,0-.048.016-.078.024a.229.229,0,0,0-.163.282c.117.711.193,1.252.31,1.962.018.084-.052.194-.142.183-.153-.1-.19-.313-.452-.3a.51.51,0,0,0-.432.406.986.986,0,0,0,0,.465.381.381,0,0,0,.432.108c.115-.048.209-.161.25-.135h0v0c.025.044,0,.414-.541.7-.331.148-.593.183-.734-.087-.088-.169.007-.809-.209-.661-.638,1.645,1.495,1.874,1.733.067.016-.051.063-.1.1-.089.015.006.027.026.032.062-.05,1.636-1.65,1.748-1.922,1.233a1.569,1.569,0,0,1-.094-.553.281.281,0,0,0-.066-.177c-.065-.048-.152.079-.171.3a1.976,1.976,0,0,0-.02.4c.085,1.293,2.146.736,2.48-.331a3.555,3.555,0,0,0,.053-1.021h0l0,0h0l.005,0c.207.22.493.029.556-.048a.093.093,0,0,1,.142-.013.33.33,0,0,0,.5-.142,4.564,4.564,0,0,0,.069-.612.613.613,0,0,0-.221.092.053.053,0,0,0-.016.029c-.008.058-.018.117-.027.176a.035.035,0,0,1-.005.013.055.055,0,0,1-.02.019c-.037.02-.1.008-.1-.045-.049-.224-.253-.255-.377.093-.083.068-.235.08-.25-.02.02-.234-.074-.265-.263-.155-.06-.463-.121-.905-.182-1.367.079,0,.15.055.222-.035a2.6,2.6,0,0,0-.335-.781h0a.178.178,0,0,0-.013-.014l-.006,0-.006,0-.012,0a.057.057,0,0,0-.026,0m-.575,2.54a.1.1,0,0,1,.113.071.124.124,0,0,1-.022.123h0v0c-.016.021-.072.012-.112.012a.107.107,0,0,1-.1-.05c-.014-.044.027-.087.046-.12h0l.008-.01a.137.137,0,0,1,.068-.03" transform="translate(-103.252 -1557.131)" fill="#fff"/>
              <path id="Path_22453" data-name="Path 22453" d="M120.2,1561.832a.344.344,0,0,0-.145.04.275.275,0,0,0-.047.364c.08.038.161.12.107.165-.229.245-.825.653-.855.728v0h0v0h0v0h0a1.711,1.711,0,0,0,.444,0v0h0a6.32,6.32,0,0,0,.736-.742c-.031-.028-.06-.047-.092-.074s-.03-.058,0-.088a.241.241,0,0,0,.024-.368.4.4,0,0,0-.182-.036m-.029.215a.122.122,0,0,1,.1.079c.024.051.012.1-.026.11s-.088-.025-.112-.076-.012-.1.026-.111l.007,0" transform="translate(-106.56 -1557.085)" fill="#fff"/>
              <path id="Path_22454" data-name="Path 22454" d="M111.819,1570.2a1.2,1.2,0,0,0-.121,1.066.262.262,0,0,0,.257.086.471.471,0,0,0,.171-.457c-.048-.075-.085-.087-.132-.024-.1.2-.143.065-.151-.049a2.612,2.612,0,0,1,.028-.574c.025-.161,0-.112-.052-.047" transform="translate(-102.327 -1561.684)" fill="#fff"/>
              <path id="Path_22455" data-name="Path 22455" d="M131.054,1564.888c-.22-.474-.525-.943-.621-1.122s-.829-1.242-.937-1.362c-.237-.282.387.118-.079-.443-.177-.152-.187-.161-.335-.285-.074-.053-.256-.148-.288.01a.928.928,0,0,0,.017.334,1.163,1.163,0,0,0,.188.285,21.272,21.272,0,0,1,2.036,3.273c.1-.048.078-.612.019-.69" transform="translate(-111.835 -1556.955)" fill="#fff"/>
              <path id="Path_22456" data-name="Path 22456" d="M131.695,1566.6c-.044.049.107.257.3.256a1.147,1.147,0,0,0,.88-.7,1.25,1.25,0,0,0,.2-.54,11.8,11.8,0,0,0-.218-2.736.453.453,0,0,1,.008-.191c.021-.026.093,0,.131-.063.055-.057-.149-.528-.265-.71-.041-.081-.055-.135-.124.01a1.026,1.026,0,0,0-.115.514c.156,1.078.2,2.021.306,3.1a.428.428,0,0,1-.076.317,3.045,3.045,0,0,1-1.028.748" transform="translate(-113.442 -1557.087)" fill="#fff"/>
              <path id="Path_22457" data-name="Path 22457" d="M141.358,1566.542c-.235.135-.235.291-.045.3a1.167,1.167,0,0,0,.977-.467,1.565,1.565,0,0,0,.159-.6,14.075,14.075,0,0,0-.178-2.956,1.456,1.456,0,0,1-.031-.278c.021-.054.127.006.166-.056.056-.057-.276-.483-.392-.664-.041-.081-.055-.135-.124.011a.841.841,0,0,0-.068.514,28.479,28.479,0,0,1,.328,3.339,1.077,1.077,0,0,1-.065.276,2.209,2.209,0,0,1-.321.374c-.106.079-.333.155-.406.213" transform="translate(-118.698 -1557.031)" fill="#fff"/>
              <path id="Path_22458" data-name="Path 22458" d="M141.046,1565.478c0-.273,0-.509-.005-.714s-.1-.97-.133-1.135-.062-.413-.11-.61a2.041,2.041,0,0,1-.041-.345c.02-.056.093,0,.128-.063a2.185,2.185,0,0,0-.309-.858c-.044-.08-.124-.053-.221.077-.091.085-.058.279-.023.465a17.127,17.127,0,0,1,.37,3.665c-.012.1.345-.294.343-.482" transform="translate(-118.211 -1557.016)" fill="#fff"/>
              <path id="Path_22459" data-name="Path 22459" d="M137.4,1565.578c-.147,0-.455-.287-.546-.453a.31.31,0,0,1,.018-.243c.055-.035.139-.075.2-.036,0,0,.065.09.052.1.08.038.115.016.123-.016.005-.057-.024-.092-.024-.155a.171.171,0,0,1,.3-.089.654.654,0,0,1,.082.3c0,.049-.08-.008-.124,0s-.056.064-.059.111c-.009.124-.024.323-.026.473" transform="translate(-116.295 -1558.63)" fill="#fff"/>
              <path id="Path_22460" data-name="Path 22460" d="M131.128,1565.778a12.929,12.929,0,0,0-.019-1.35c-.015-.518-.1-1.519-.14-1.687-.046-.315.129.034.105-.149a2.025,2.025,0,0,0-.437-.816c-.066-.094-.064-.113-.166.024a.954.954,0,0,0,.013.632,11.859,11.859,0,0,1,.275,1.842,16.614,16.614,0,0,1,.016,1.953c.111,0,.289-.18.352-.448" transform="translate(-112.739 -1557.012)" fill="#fff"/>
              <path id="Path_22461" data-name="Path 22461" d="M140.038,1565.189c-.26-.435-.651-.946-.756-1.121s-.99-1.473-1.1-1.589c-.324-.34.149-.055-.062-.318a2.507,2.507,0,0,0-.383-.374c-.076-.049-.122-.143-.147.017a3.069,3.069,0,0,0-.011.423.568.568,0,0,0,.128.264,24.145,24.145,0,0,1,2.331,3.383c.1-.051.066-.608,0-.685" transform="translate(-116.702 -1557.02)" fill="#fff"/>
              <path id="Path_22462" data-name="Path 22462" d="M124.992,1581.031h0a.218.218,0,0,0-.075.4c-2.426,0-6.147-.041-6.945-.041-.447,0-1.859-.053-1.886-.053a1.43,1.43,0,0,0,1.316.542c1.077,0,6.068-.013,7.488-.013a.5.5,0,0,0,.089.521l.005,0,.01,0h0c.1.022.137-.046.169-.1a9.741,9.741,0,0,0,1.089,0h0c.053.078.106.152.207.139.177-.038.317-.057.321-.417,0,0-.018-.612-.42-.574-.1.014-.362.042-.362.042-.309-.037-.536-.041-.883-.054.032-.04.088-.2.02-.265a.113.113,0,0,0-.083-.02h0v0h0l-.006-.006,0,0c-.017-.025-.028-.088-.038-.1h0v0h-.005m.164.875h0c.354.018.686,0,1.04.021a.128.128,0,0,1-.008.177l-.006,0h-.008l-.3-.009a.051.051,0,0,0,0-.017c-.027-.081-.224-.076-.271-.013l0,0,0,.005,0,.006a.026.026,0,0,0,0,.008v.009a2.686,2.686,0,0,1-.451-.011c-.046-.056-.04-.159.013-.184" transform="translate(-104.8 -1567.719)" fill="#fff"/>
              <path id="Path_22463" data-name="Path 22463" d="M122.2,1562c-.236.676.136,1.415.394,1.344.186.076.3-.276.381-.665.052-.109.091-.12.118-.064-.006.515.037.629.17.786a.429.429,0,0,0,.559.01l.231-.231a.139.139,0,0,1,.191-.009c.07.064.06.175.211.251a.466.466,0,0,0,.46-.1c.084-.145.1-.194.144-.25.061-.08.163-.044.163-.018-.009.045-.069.089-.029.17.072.053.089.019.131.007.15-.072.263-.4.263-.4.006-.121-.062-.111-.106-.087s-.061.046-.118.082c-.073.011-.215.059-.286-.05a4.352,4.352,0,0,1-.127-.445c0-.01-.1-.208-.007-.221.045.008.14.033.155-.047.047-.078-.1-.3-.2-.412a.217.217,0,0,0-.326-.01c-.082.076-.07.16-.087.24a.372.372,0,0,0,.077.326.994.994,0,0,1,.182.662.266.266,0,0,1-.239.12c-.063-.014-.166-.041-.221-.446a2.922,2.922,0,0,0-.121-.938c-.047-.122-.081-.24-.2-.031a.483.483,0,0,0-.067.461,1.371,1.371,0,0,1,.075.716,1.421,1.421,0,0,1-.138.2.227.227,0,0,1-.292.04.312.312,0,0,1-.174-.245,3.358,3.358,0,0,0-.028-.792.143.143,0,0,0-.239-.049,1.809,1.809,0,0,0-.435.892c-.067.217-.139.155-.189.068-.122-.115-.13-1.01-.278-.864" transform="translate(-108.145 -1556.88)" fill="#fff"/>
              <path id="Path_22464" data-name="Path 22464" d="M120.681,1565.794l-.006,0,0,0c-.016.012-.036.038-.076.068-.069.079-.081.133-.077.291,0,.016.131.371.24.621a1.932,1.932,0,0,1,.091.837,2.064,2.064,0,0,1-.845.883.439.439,0,0,1-.353,0h0a.219.219,0,0,1-.094-.2v0h0a1.994,1.994,0,0,0,.849-.877.9.9,0,0,0,.023-.632.61.61,0,0,0-.144-.293v0c.048-.022.171.069.19.011a.925.925,0,0,0-.243-.449.205.205,0,0,0-.3-.018c-.1.057-.125.262-.076.442.055.135.2.158.309.43h0c0,.017.036.2-.017.279a3.328,3.328,0,0,1-.637.6l0,0,0,0H119.5v0c0-.011,0-.039,0-.084,0-.082.03-.266.027-.3v0h0c-.183.118-.243.481-.277.589a8.709,8.709,0,0,0-1.293.884c-.158.247,1.088-.284,1.233-.348l0,0c.028.03.03.136.112.231a.658.658,0,0,0,.672.217,2.137,2.137,0,0,0,.973-.809c.037-.055.1-.1.151-.055a1.52,1.52,0,0,0,1.378.724c.157-.189.082-.283.019-.323-.019-.013-.335-.137-.385-.259-.031-.115.043-.215.194-.292a6.762,6.762,0,0,0,1.272-.244,1.111,1.111,0,0,1,.141-.436.216.216,0,0,1,.071-.078h0v0a.037.037,0,0,0,0-.011l-.07-.042-1.384-.006a.151.151,0,0,1-.038-.019l0,0,0,0h0v0h0v0h0v0h0v0a.1.1,0,0,1,.045-.026c.331-.045.918-.141.957-.706a.464.464,0,1,0-.911.019c-.012.077.026.225-.052.242-.508.047-1.063.365-1.082.593h0l0,0h-.019a.133.133,0,0,1-.069-.14,2.713,2.713,0,0,0-.348-1.184c-.072-.072-.1-.1-.124-.1h-.01m2.023.505a.184.184,0,0,1,.107.029.142.142,0,0,1,.084.115v.016l-.008.009a.136.136,0,0,1-.145-.013.146.146,0,0,1-.086-.114v0a.048.048,0,0,1,0-.012l0,0h0l.006-.006a.058.058,0,0,1,.035-.013m-1.287,1.168h.016a4.275,4.275,0,0,0,.578.065c.161.011.241.137.091.19s-.291.09-.291.3a.3.3,0,0,1,0,.188.03.03,0,0,1,0,.006h0v0h0l-.008,0h0a.274.274,0,0,1-.127-.049.784.784,0,0,1-.385-.567.143.143,0,0,1,.145-.15" transform="translate(-105.83 -1559.279)" fill="#fff"/>
              <path id="Path_22465" data-name="Path 22465" d="M115.626,1562.207c.16.076.459.043.447-.214,0-.023-.006-.1-.008-.12-.032-.076-.121-.057-.141.021-.007.026.011.067-.012.081s-.065.005-.062-.066a.121.121,0,0,0-.027-.061.054.054,0,0,0-.035-.009c-.021,0-.021.008-.033.026a.211.211,0,0,0-.012.06c0,.025-.012.034-.031.038s-.016,0-.033-.009-.022-.015-.022-.034a.192.192,0,0,0-.01-.063.061.061,0,0,0-.039-.021c-.087,0-.093.1-.088.137-.006.008-.01.186.108.235" transform="translate(-104.484 -1557.081)" fill="#fff"/>
              <path id="Path_22466" data-name="Path 22466" d="M126.1,1566.638c.16.075.538.032.447-.214,0-.022-.006-.1-.008-.12-.032-.076-.121-.058-.141.021-.006.026.012.067-.012.081s-.065.005-.062-.066a.122.122,0,0,0-.027-.061.053.053,0,0,0-.035-.009c-.022,0-.022.007-.034.026a.211.211,0,0,0-.012.059c0,.025-.012.035-.031.038s-.016,0-.033-.008-.022-.015-.022-.034a.189.189,0,0,0-.01-.063.065.065,0,0,0-.039-.021c-.087,0-.093.1-.088.137-.006.007-.01.185.108.235" transform="translate(-110.284 -1559.536)" fill="#fff"/>
              <path id="Path_22467" data-name="Path 22467" d="M132.2,1564.8c.159.076.459.044.446-.213,0-.024-.005-.1-.008-.121-.033-.076-.122-.057-.141.021-.006.026.011.068-.013.08s-.064.006-.061-.066a.121.121,0,0,0-.028-.061.047.047,0,0,0-.034-.008c-.023,0-.022.006-.035.025a.265.265,0,0,0-.012.059c0,.026-.012.034-.031.038s-.016,0-.033-.008-.023-.015-.023-.033a.23.23,0,0,0-.01-.064.085.085,0,0,0-.039-.021c-.087,0-.094.1-.088.137-.007.008-.01.186.108.235" transform="translate(-113.667 -1558.519)" fill="#fff"/>
              <path id="Path_22468" data-name="Path 22468" d="M135.287,1565.354a.967.967,0,0,0-.092.942.742.742,0,0,0,.343.391.24.24,0,0,0,.359-.039c.163-.169.166-.6.242-.687a.144.144,0,0,1,.255-.06.638.638,0,0,0,.232.2.391.391,0,0,0,.513.036.591.591,0,0,0,.274-.333,12.418,12.418,0,0,0,.019-1.956c-.006-.046-.158-.8-.158-.811s-.02-.386-.037-.476c0-.036-.011-.047.027-.042a.219.219,0,0,0,.071.048c.041.008.078-.062.053-.127l-.38-.7c-.03-.03-.07-.063-.119.009a.277.277,0,0,0-.094.208c.012.166.041.335.052.5l.152.853c.047.609.06,1.164.107,1.772-.007.257-.087.6-.162.631,0,0-.114.067-.19-.007a2.252,2.252,0,0,1-.279-.371.169.169,0,0,0-.271,0,3.72,3.72,0,0,0-.476.9c-.04.062-.151.116-.273,0a1.272,1.272,0,0,1-.169-.876" transform="translate(-115.34 -1557.014)" fill="#fff"/>
              <path id="Path_22469" data-name="Path 22469" d="M132.281,1561.929a.526.526,0,0,1,.211.489c-.029.175-.1.364-.159.339s.041-.174-.017-.333c-.031-.1-.226-.293-.206-.348-.041-.117.083-.168.17-.147" transform="translate(-113.672 -1557.136)" fill="#fff"/>
              <path id="Path_22470" data-name="Path 22470" d="M135.611,1565.564a4.4,4.4,0,0,0-.03-.763c-.009-.2-.231-1.859-.276-2.013-.055-.292.215-.039.186-.209-.093-.214-.326-.526-.4-.712-.044-.079-.025-.15-.124-.021a1.6,1.6,0,0,0-.087.727,15.826,15.826,0,0,1,.436,3.5c.111,0,.239-.254.294-.506" transform="translate(-115.204 -1557.053)" fill="#fff"/>
              <path id="Path_22471" data-name="Path 22471" d="M141.8,1562.856c.13.065.207.426.193.53-.027.19-.1.394-.145.367s.011-.281-.015-.36c-.029-.112-.207-.317-.188-.378a.123.123,0,0,1,.155-.159" transform="translate(-118.954 -1557.649)" fill="#fff"/>
              <path id="Path_22472" data-name="Path 22472" d="M120.127,1568.792c.125.048.2.314.184.39-.025.139-.091.289-.138.269s.01-.206-.015-.264c-.01-.142-.184-.216-.18-.278-.033-.113.072-.133.148-.117" transform="translate(-106.953 -1560.937)" fill="#fff"/>
              <path id="Path_22473" data-name="Path 22473" d="M112.67,1561.735c.183.055.194.326.181.4-.025.144-.09.3-.136.279s0-.214-.026-.274c-.027-.086-.182-.242-.165-.288-.035-.1.071-.139.147-.122" transform="translate(-102.823 -1557.029)" fill="#fff"/>
              <path id="Path_22474" data-name="Path 22474" d="M120.805,1564.566a.328.328,0,0,0-.108.435.212.212,0,0,0,.228.074c.138.017.22-.259.22-.259s0-.078-.16.069c-.069.013-.077-.013-.095-.052a.339.339,0,0,1,.021-.216c.025-.069-.029-.1-.108-.051" transform="translate(-107.331 -1558.586)" fill="#fff"/>
              <path id="Path_22475" data-name="Path 22475" d="M123.086,1561.474a.513.513,0,0,0-.216.362c0,.1-.022.1.04.155.046.065.091.059.181.012a.2.2,0,0,0,.087-.129c.022-.108-.114.052-.131-.069s.057-.157.139-.265c0-.074,0-.126-.1-.066" transform="translate(-108.555 -1556.872)" fill="#fff"/>
              <path id="Path_22476" data-name="Path 22476" d="M125.191,1561.674a2.228,2.228,0,0,0-.061.42c-.025.1.11.15.171.015a1.293,1.293,0,0,0,.1-.457c-.028-.16-.137-.155-.207.023" transform="translate(-109.808 -1556.921)" fill="#fff"/>
              <path id="Path_22477" data-name="Path 22477" d="M137.253,1567.294c.019-.018.757-.543.757-.543.075-.027.059.27.025.268a2.933,2.933,0,0,1-.781.543c-.036.027-.074-.2,0-.269" transform="translate(-116.502 -1559.808)" fill="#fff"/>
              <path id="Path_22478" data-name="Path 22478" d="M138.621,1567.956c.13.065.182.445.168.549,0,.2-.125.363-.175.336s.005-.249-.021-.329c-.029-.112-.139-.323-.12-.383a.127.127,0,0,1,.149-.172" transform="translate(-117.196 -1560.474)" fill="#fff"/>
              <path id="Path_22479" data-name="Path 22479" d="M128.94,1571.4a.944.944,0,0,1,.213-.183.141.141,0,0,1,.141.024c.012.073-.046.141-.027.239.015.039.027.083.1.066a.536.536,0,0,1,.343-.1c.09.005.093.158.036.159a2.569,2.569,0,0,0-.468.163.106.106,0,0,1-.136-.017.145.145,0,0,1-.013-.139c.005-.077-.026-.12-.091-.112-.049.027-.092.044-.116-.012s-.013-.062.019-.085" transform="translate(-111.906 -1562.274)" fill="#fff"/>
              <path id="Path_22480" data-name="Path 22480" d="M140.354,1571.831a.1.1,0,0,1,0,.143c-.051.047-.088.073-.141.121-.024.042-.04.105.035.125.138.038.457-.168.457-.173a.1.1,0,0,0,.031-.112c-.031-.034-.1-.014-.145-.019-.022,0-.093-.011-.058-.074a.437.437,0,0,0,.058-.111c.021-.047,0-.08-.074-.105a.614.614,0,0,0-.2,0c-.047.01-.063.031-.072.089,0,.087.056.082.111.117" transform="translate(-118.153 -1562.504)" fill="#fff"/>
            </g>
          </g>
        </g>
      </g>
    </g>
  </g>
</svg>
