<svg xmlns="http://www.w3.org/2000/svg" xmlns:xlink="http://www.w3.org/1999/xlink" width="40" height="26" viewBox="0 0 40 26">
  <defs>
    <clipPath id="clip-path">
      <rect id="Rectangle_2757" data-name="Rectangle 2757" width="40" height="26" rx="4" transform="translate(53 393)" fill="#fff"/>
    </clipPath>
    <clipPath id="clip-path-2">
      <rect id="SVGID" width="44.276" height="25.828" fill="none"/>
    </clipPath>
  </defs>
  <g id="SaudiFlag" transform="translate(-53 -393)" clip-path="url(#clip-path)">
    <g id="Group_4482" data-name="Group 4482" transform="translate(-39.788 -1158.19)">
      <g id="Group_4481" data-name="Group 4481" transform="translate(90.788 1551.19)">
        <g id="Group_4480" data-name="Group 4480" clip-path="url(#clip-path-2)">
          <rect id="Rectangle_2756" data-name="Rectangle 2756" width="44.276" height="25.828" fill="#3d9635"/>
          <g id="Group_4479" data-name="Group 4479">
            <g id="Group_4478" data-name="Group 4478" clip-path="url(#clip-path-2)">
              <path id="Path_9402" data-name="Path 9402" d="M111.835,1562.856c-.045.6-.1,1.664.415,1.773.62.061.278-1.049.5-1.25.043-.1.121-.1.127.026v.941a.45.45,0,0,0,.352.459c.162-.012.271-.006.335.152q.037.814.076,1.627s.377.108.395-.915a9.619,9.619,0,0,1-.039-1.22c0-.116.149-.123.251-.067.162.114.235.255.486.2.384-.106.614-.292.62-.587a2.592,2.592,0,0,0-.175-.84c.017-.05-.075-.182-.057-.233.069.108.174.1.2,0a.839.839,0,0,0-.33-.51c-.136-.12-.335-.095-.407.155a1.356,1.356,0,0,0,.312.905.871.871,0,0,1,.079.453.242.242,0,0,1-.315-.062s-.305-.228-.305-.279a1.09,1.09,0,0,0-.027-.722.975.975,0,0,0-.2-.4c-.076-.081-.18-.081-.229,0a1.366,1.366,0,0,0,.025.959c.07.207.178.337.128.337-.043.117-.129.09-.192-.045a3.336,3.336,0,0,1-.108-.881c-.027-.233-.057-.728-.21-.853-.092-.127-.231-.066-.28.051a4.254,4.254,0,0,0,.015.673,7.36,7.36,0,0,1,.189,1.083c.014.51-.3.222-.281-.032a2.319,2.319,0,0,0-.011-.978c-.05-.131-.109-.163-.232-.142-.1-.006-.347.266-.417.72a3.971,3.971,0,0,0-.085.44c-.034.234-.189.4-.3-.033-.094-.314-.151-1.086-.307-.9" transform="translate(-99.305 -1555.534)" fill="#fff"/>
              <path id="Path_9403" data-name="Path 9403" d="M113.587,1567.484c-.547.267-1.076.516-1.614.776a1.642,1.642,0,0,1,1.278-1.036c.331.009.249.129.337.26" transform="translate(-99.372 -1557.687)" fill="#fff"/>
              <path id="Path_9404" data-name="Path 9404" d="M116.182,1561.916c-.031,0-.064.022-.1.031a.306.306,0,0,0-.217.377c.156.948.258,1.669.414,2.616.024.112-.069.258-.189.243-.2-.138-.254-.418-.6-.406a.68.68,0,0,0-.576.541,1.314,1.314,0,0,0,0,.62.509.509,0,0,0,.576.143c.153-.064.279-.215.333-.18h0v0c.033.058,0,.552-.721.933-.441.2-.791.245-.979-.116-.118-.225.01-1.079-.279-.882-.851,2.193,1.993,2.5,2.31.089.021-.068.084-.135.129-.118.02.008.036.035.043.083-.067,2.182-2.2,2.33-2.563,1.644a2.092,2.092,0,0,1-.126-.737.376.376,0,0,0-.087-.236c-.086-.064-.2.105-.228.4a2.635,2.635,0,0,0-.026.531c.114,1.724,2.861.982,3.307-.441a4.742,4.742,0,0,0,.071-1.361h0l0,0h0l.007,0c.275.294.657.038.741-.064a.124.124,0,0,1,.189-.017.44.44,0,0,0,.663-.189,6.091,6.091,0,0,0,.092-.816.811.811,0,0,0-.3.122.07.07,0,0,0-.021.039c-.011.078-.024.156-.036.234a.048.048,0,0,1-.007.017.075.075,0,0,1-.026.025c-.049.026-.133.011-.138-.06-.065-.3-.338-.34-.5.124-.111.091-.313.107-.334-.027.027-.312-.1-.353-.35-.207-.08-.617-.161-1.207-.242-1.823.1,0,.2.074.3-.046a3.466,3.466,0,0,0-.446-1.042h0c0-.007-.012-.013-.017-.018l-.008-.006-.008,0-.015-.006a.075.075,0,0,0-.035,0m-.766,3.387a.139.139,0,0,1,.15.1.165.165,0,0,1-.029.164v0l0,0c-.021.028-.1.016-.15.016a.143.143,0,0,1-.134-.067c-.019-.058.036-.116.061-.159h0a.073.073,0,0,1,.011-.013.182.182,0,0,1,.09-.04" transform="translate(-99.906 -1555.536)" fill="#fff"/>
              <path id="Path_9405" data-name="Path 9405" d="M120.517,1561.833a.457.457,0,0,0-.193.053.366.366,0,0,0-.062.485c.107.051.215.161.143.219-.306.326-1.1.871-1.14.971v.006h0v0l0,0h0v0h0a2.294,2.294,0,0,0,.592,0v0h0a8.42,8.42,0,0,0,.981-.99c-.042-.037-.08-.063-.123-.1s-.04-.077,0-.117a.321.321,0,0,0,.032-.491.527.527,0,0,0-.242-.047m-.039.287a.162.162,0,0,1,.139.105c.032.069.015.135-.035.146s-.118-.033-.149-.1-.015-.135.035-.147l.01,0" transform="translate(-102.326 -1555.502)" fill="#fff"/>
              <path id="Path_9406" data-name="Path 9406" d="M111.885,1570.217a1.6,1.6,0,0,0-.162,1.421.35.35,0,0,0,.343.114.628.628,0,0,0,.228-.61c-.064-.1-.114-.115-.177-.031-.134.272-.19.086-.2-.066a3.483,3.483,0,0,1,.037-.766c.033-.215,0-.15-.069-.062" transform="translate(-99.229 -1558.867)" fill="#fff"/>
              <path id="Path_9407" data-name="Path 9407" d="M131.809,1565.984c-.293-.632-.7-1.257-.829-1.5s-1.105-1.656-1.25-1.817c-.316-.376.516.157-.1-.591-.236-.2-.25-.215-.446-.38-.1-.071-.341-.2-.384.014a1.238,1.238,0,0,0,.022.445,1.55,1.55,0,0,0,.25.38,28.357,28.357,0,0,1,2.715,4.364c.133-.064.1-.815.026-.921" transform="translate(-106.185 -1555.408)" fill="#fff"/>
              <path id="Path_9408" data-name="Path 9408" d="M131.7,1568.193c-.058.065.142.343.4.341a1.529,1.529,0,0,0,1.173-.937,1.668,1.668,0,0,0,.266-.72,15.731,15.731,0,0,0-.291-3.648.6.6,0,0,1,.011-.255c.028-.034.124,0,.175-.084.074-.076-.2-.7-.353-.946-.055-.108-.074-.18-.165.013a1.368,1.368,0,0,0-.153.686c.208,1.437.272,2.694.407,4.131a.571.571,0,0,1-.1.422,4.058,4.058,0,0,1-1.371,1" transform="translate(-107.36 -1555.504)" fill="#fff"/>
              <path id="Path_9409" data-name="Path 9409" d="M141.419,1568.145c-.313.181-.313.388-.06.4a1.556,1.556,0,0,0,1.3-.622,2.087,2.087,0,0,0,.212-.8,18.766,18.766,0,0,0-.238-3.941,1.941,1.941,0,0,1-.042-.37c.028-.072.169.008.221-.075.074-.076-.368-.644-.522-.886-.055-.108-.074-.18-.165.014a1.122,1.122,0,0,0-.09.686,37.98,37.98,0,0,1,.438,4.452,1.438,1.438,0,0,1-.086.368,2.953,2.953,0,0,1-.428.5c-.142.105-.444.206-.542.284" transform="translate(-111.205 -1555.463)" fill="#fff"/>
              <path id="Path_9410" data-name="Path 9410" d="M141.3,1566.734c0-.365.005-.679-.007-.952s-.136-1.293-.178-1.514-.083-.551-.146-.813a2.72,2.72,0,0,1-.054-.46c.026-.074.124,0,.171-.083a2.912,2.912,0,0,0-.412-1.144c-.058-.107-.165-.071-.3.1-.122.114-.077.372-.03.62a22.838,22.838,0,0,1,.494,4.887c-.015.133.46-.393.457-.642" transform="translate(-110.849 -1555.452)" fill="#fff"/>
              <path id="Path_9411" data-name="Path 9411" d="M137.588,1565.9c-.2,0-.607-.383-.728-.6a.413.413,0,0,1,.024-.324c.073-.047.186-.1.269-.049,0,0,.086.12.07.136.107.051.153.022.164-.021.007-.077-.032-.123-.032-.206a.228.228,0,0,1,.4-.118.872.872,0,0,1,.109.4c0,.066-.107-.011-.166,0s-.075.086-.079.148c-.012.165-.032.431-.034.631" transform="translate(-109.447 -1556.633)" fill="#fff"/>
              <path id="Path_9412" data-name="Path 9412" d="M131.364,1567.137a17.24,17.24,0,0,0-.025-1.8c-.02-.691-.133-2.026-.186-2.249-.061-.421.172.045.14-.2a2.7,2.7,0,0,0-.582-1.089c-.088-.125-.085-.151-.221.031a1.274,1.274,0,0,0,.018.843,15.8,15.8,0,0,1,.367,2.456,22.155,22.155,0,0,1,.021,2.6c.148.005.385-.24.469-.6" transform="translate(-106.846 -1555.449)" fill="#fff"/>
              <path id="Path_9413" data-name="Path 9413" d="M140.86,1566.348c-.346-.58-.868-1.261-1.008-1.495s-1.32-1.965-1.471-2.119c-.432-.453.2-.074-.083-.424a3.351,3.351,0,0,0-.51-.5c-.1-.065-.163-.191-.2.023a4.09,4.09,0,0,0-.015.564.757.757,0,0,0,.17.352,32.189,32.189,0,0,1,3.108,4.511c.131-.068.087-.81,0-.913" transform="translate(-109.745 -1555.455)" fill="#fff"/>
              <path id="Path_9414" data-name="Path 9414" d="M127.961,1581.031h0a.291.291,0,0,0-.1.537c-3.234,0-8.2-.055-9.26-.055-.6,0-2.479-.07-2.515-.07a1.906,1.906,0,0,0,1.754.722c1.436,0,8.091-.018,9.984-.018a.663.663,0,0,0,.118.694l.007.005.014,0h0c.127.03.182-.062.225-.127a13.059,13.059,0,0,0,1.452,0h0c.071.1.142.2.275.186.236-.051.422-.076.428-.556,0,0-.024-.816-.56-.765-.127.019-.482.055-.482.055-.412-.049-.714-.054-1.177-.072.043-.054.118-.273.026-.353a.151.151,0,0,0-.11-.027h0v0h-.005l-.008-.008,0,0c-.023-.034-.037-.117-.051-.139h0v0h-.007m.219,1.166h0c.472.024.915.005,1.386.028a.17.17,0,0,1-.011.236l-.008,0h-.011c-.155,0-.243-.008-.4-.011a.069.069,0,0,0,0-.023c-.036-.108-.3-.1-.362-.017l0,.005,0,.006,0,.008a.035.035,0,0,0,0,.011l0,.012a3.569,3.569,0,0,1-.6-.015c-.061-.075-.054-.212.017-.245" transform="translate(-101.038 -1563.282)" fill="#fff"/>
              <path id="Path_9415" data-name="Path 9415" d="M122.225,1562.176c-.315.9.181,1.887.525,1.792.247.1.406-.369.507-.887.07-.145.122-.16.157-.085-.008.687.05.839.227,1.048a.572.572,0,0,0,.745.013l.308-.307a.185.185,0,0,1,.255-.012c.094.085.08.233.281.335a.622.622,0,0,0,.614-.13c.112-.193.14-.259.192-.333.081-.106.217-.059.217-.024-.012.059-.092.118-.039.227.1.071.119.025.175.01.2-.1.35-.531.35-.531.008-.162-.082-.149-.142-.115-.076.047-.081.061-.158.109-.1.015-.287.079-.382-.066a5.806,5.806,0,0,1-.169-.594c0-.013-.128-.278-.01-.294.059.011.187.045.207-.062.063-.1-.134-.4-.268-.55a.29.29,0,0,0-.435-.014c-.109.1-.093.214-.115.32a.5.5,0,0,0,.1.435,1.325,1.325,0,0,1,.242.883.355.355,0,0,1-.319.16c-.084-.019-.222-.054-.294-.594a3.9,3.9,0,0,0-.161-1.251c-.062-.162-.108-.319-.261-.042a.644.644,0,0,0-.089.614,1.828,1.828,0,0,1,.1.955,1.885,1.885,0,0,1-.184.26.3.3,0,0,1-.389.053.416.416,0,0,1-.233-.327,4.479,4.479,0,0,0-.037-1.056.191.191,0,0,0-.319-.065,2.411,2.411,0,0,0-.581,1.19c-.089.289-.185.207-.252.09-.163-.153-.174-1.347-.371-1.152" transform="translate(-103.485 -1555.353)" fill="#fff"/>
              <path id="Path_9416" data-name="Path 9416" d="M121.594,1565.794l-.008,0,0,0c-.021.016-.048.051-.1.09-.092.105-.108.178-.1.388.005.022.175.495.319.828a2.577,2.577,0,0,1,.121,1.116,2.751,2.751,0,0,1-1.127,1.178.585.585,0,0,1-.471,0h0a.293.293,0,0,1-.126-.268v0h0a2.658,2.658,0,0,0,1.132-1.17,1.2,1.2,0,0,0,.031-.843.814.814,0,0,0-.192-.39l0,0c.064-.03.228.092.253.015a1.232,1.232,0,0,0-.324-.6.273.273,0,0,0-.4-.024c-.137.076-.167.349-.1.589.073.18.272.211.412.574v0c0,.022.048.271-.023.372a4.436,4.436,0,0,1-.849.8l0,0,0,0h0l0,0h0v0h0v0c0-.014,0-.052,0-.113,0-.109.04-.355.036-.4v0h0v0h0c-.244.158-.324.641-.369.785a11.624,11.624,0,0,0-1.724,1.179c-.211.33,1.451-.378,1.645-.464l0,.005c.037.04.04.181.15.307a.877.877,0,0,0,.9.29,2.849,2.849,0,0,0,1.3-1.078c.05-.074.129-.13.2-.074a2.027,2.027,0,0,0,1.838.965c.209-.252.109-.377.025-.431-.026-.018-.447-.182-.513-.345-.042-.153.058-.287.259-.389a9.029,9.029,0,0,0,1.7-.325,1.481,1.481,0,0,1,.187-.581.29.29,0,0,1,.1-.1l0,0h0l0,0v0a.05.05,0,0,0,0-.014l-.093-.055-1.846-.008a.2.2,0,0,1-.051-.026l0,0,0,0h0v0h0v0h0v0h0v0h0v0h0v0h0v0a.14.14,0,0,1,.059-.035c.441-.06,1.223-.188,1.276-.941a.618.618,0,1,0-1.215.026c-.017.1.035.3-.07.322-.677.063-1.418.487-1.443.791h0l0,0h-.025a.178.178,0,0,1-.092-.187,3.618,3.618,0,0,0-.465-1.579c-.1-.1-.137-.134-.165-.138h-.013m2.7.674a.246.246,0,0,1,.143.038.189.189,0,0,1,.112.153v.005l0,.005v0l0,0v0a.116.116,0,0,0-.01.012.181.181,0,0,1-.194-.017.2.2,0,0,1-.114-.152l0-.005a.065.065,0,0,1,.007-.017l0-.006h0l.008-.008a.077.077,0,0,1,.046-.017m-1.716,1.558a.081.081,0,0,1,.017,0h0a5.686,5.686,0,0,0,.771.087c.215.015.322.182.121.253s-.388.12-.388.406c.026.142.02.216,0,.251a.034.034,0,0,1-.006.008v0h0v0h0l0,0-.011.005h-.006a.365.365,0,0,1-.17-.065,1.046,1.046,0,0,1-.513-.755.191.191,0,0,1,.193-.2" transform="translate(-101.791 -1557.108)" fill="#fff"/>
              <path id="Path_9417" data-name="Path 9417" d="M115.663,1562.334c.213.1.612.058.6-.285,0-.03-.008-.133-.011-.16-.043-.1-.161-.076-.188.027-.009.035.014.09-.016.108s-.086.007-.083-.088a.162.162,0,0,0-.036-.082.072.072,0,0,0-.047-.012c-.029,0-.029.01-.045.035a.279.279,0,0,0-.017.079c0,.034-.016.046-.041.051s-.021,0-.044-.012-.03-.02-.03-.045a.255.255,0,0,0-.014-.084.081.081,0,0,0-.052-.029c-.117,0-.124.133-.117.183-.008.01-.014.247.145.313" transform="translate(-100.807 -1555.5)" fill="#fff"/>
              <path id="Path_9418" data-name="Path 9418" d="M126.134,1566.766c.213.1.718.043.6-.285,0-.03-.008-.133-.011-.16-.043-.1-.161-.077-.188.028-.008.034.015.09-.016.108s-.086.007-.083-.088a.163.163,0,0,0-.036-.081.07.07,0,0,0-.046-.012c-.029,0-.029.01-.045.034a.28.28,0,0,0-.016.079c0,.033-.017.046-.042.051s-.021,0-.044-.011-.03-.02-.03-.046a.253.253,0,0,0-.014-.084.088.088,0,0,0-.052-.029c-.116,0-.124.133-.117.183-.008.01-.014.246.145.313" transform="translate(-105.05 -1557.295)" fill="#fff"/>
              <path id="Path_9419" data-name="Path 9419" d="M132.241,1564.931c.212.1.611.058.594-.284,0-.031-.007-.133-.01-.161-.044-.1-.162-.076-.188.028-.008.034.014.09-.017.107s-.085.008-.081-.088a.16.16,0,0,0-.037-.081.062.062,0,0,0-.045-.011c-.03,0-.029.008-.046.033a.354.354,0,0,0-.016.079c0,.034-.016.046-.041.051s-.021,0-.043-.011-.03-.02-.03-.045a.306.306,0,0,0-.013-.086.112.112,0,0,0-.052-.028c-.116,0-.125.133-.117.183-.01.011-.014.248.145.313" transform="translate(-107.525 -1556.552)" fill="#fff"/>
              <path id="Path_9420" data-name="Path 9420" d="M135.345,1566.571a1.29,1.29,0,0,0-.123,1.256.989.989,0,0,0,.457.521.32.32,0,0,0,.478-.052c.217-.225.221-.8.322-.916a.191.191,0,0,1,.34-.08.849.849,0,0,0,.31.267.52.52,0,0,0,.684.048.788.788,0,0,0,.365-.444,16.554,16.554,0,0,0,.026-2.608c-.008-.062-.211-1.07-.211-1.082s-.026-.515-.049-.635c0-.048-.015-.062.036-.056a.293.293,0,0,0,.095.063c.055.01.1-.083.071-.169l-.506-.934c-.04-.041-.093-.084-.158.012a.371.371,0,0,0-.126.278c.015.221.054.447.07.668q.1.567.2,1.137c.063.811.08,1.552.143,2.363-.01.343-.115.8-.217.842,0,0-.152.089-.253-.009a3.006,3.006,0,0,1-.372-.495.225.225,0,0,0-.361,0,4.96,4.96,0,0,0-.635,1.2c-.053.082-.2.154-.364-.006a1.7,1.7,0,0,1-.225-1.168" transform="translate(-108.749 -1555.451)" fill="#fff"/>
              <path id="Path_9421" data-name="Path 9421" d="M132.34,1561.931a.7.7,0,0,1,.281.652c-.039.233-.14.485-.212.452s.054-.232-.022-.444c-.042-.138-.3-.391-.274-.464-.054-.156.11-.224.227-.2" transform="translate(-107.528 -1555.54)" fill="#fff"/>
              <path id="Path_9422" data-name="Path 9422" d="M135.859,1566.828a5.863,5.863,0,0,0-.04-1.018c-.012-.271-.308-2.479-.368-2.684-.073-.39.287-.052.248-.279-.124-.286-.434-.7-.532-.949-.059-.105-.034-.2-.165-.027a2.128,2.128,0,0,0-.117.969,21.1,21.1,0,0,1,.581,4.663c.148,0,.319-.339.392-.674" transform="translate(-108.649 -1555.479)" fill="#fff"/>
              <path id="Path_9423" data-name="Path 9423" d="M141.855,1562.858c.174.087.275.568.257.707-.036.253-.127.525-.194.49s.015-.374-.02-.481c-.038-.149-.275-.423-.25-.5a.164.164,0,0,1,.207-.212" transform="translate(-111.392 -1555.915)" fill="#fff"/>
              <path id="Path_9424" data-name="Path 9424" d="M120.178,1568.794c.167.064.265.418.246.52-.033.185-.122.385-.184.359s.013-.275-.02-.353c-.014-.19-.245-.288-.24-.37-.043-.151.1-.177.2-.156" transform="translate(-102.613 -1558.321)" fill="#fff"/>
              <path id="Path_9425" data-name="Path 9425" d="M112.721,1561.737c.244.074.259.434.241.54-.033.192-.12.4-.182.372s0-.285-.035-.366c-.036-.114-.243-.323-.219-.384-.046-.129.095-.185.2-.162" transform="translate(-99.592 -1555.462)" fill="#fff"/>
              <path id="Path_9426" data-name="Path 9426" d="M120.855,1564.574a.438.438,0,0,0-.144.581.282.282,0,0,0,.3.1c.184.023.293-.346.293-.346s.007-.1-.213.092c-.092.017-.1-.017-.126-.069a.452.452,0,0,1,.029-.288c.033-.092-.039-.132-.143-.068" transform="translate(-102.89 -1556.601)" fill="#fff"/>
              <path id="Path_9427" data-name="Path 9427" d="M123.16,1561.483a.685.685,0,0,0-.288.482c-.006.127-.03.127.053.207.061.086.121.079.241.015a.262.262,0,0,0,.117-.171c.029-.143-.152.069-.175-.092-.04-.149.076-.209.185-.353,0-.1,0-.168-.133-.089" transform="translate(-103.785 -1555.347)" fill="#fff"/>
              <path id="Path_9428" data-name="Path 9428" d="M125.212,1561.72a2.968,2.968,0,0,0-.081.56c-.033.14.146.2.228.02a1.724,1.724,0,0,0,.13-.61c-.037-.214-.182-.206-.277.03" transform="translate(-104.702 -1555.383)" fill="#fff"/>
              <path id="Path_9429" data-name="Path 9429" d="M137.268,1567.475c.025-.024,1.009-.724,1.009-.724.1-.036.079.36.033.357a3.912,3.912,0,0,1-1.041.725c-.048.036-.1-.271,0-.358" transform="translate(-109.599 -1557.495)" fill="#fff"/>
              <path id="Path_9430" data-name="Path 9430" d="M138.673,1567.957c.174.086.243.594.224.732.007.269-.167.484-.234.448s.007-.332-.028-.439c-.039-.149-.185-.431-.16-.511a.169.169,0,0,1,.2-.229" transform="translate(-110.107 -1557.982)" fill="#fff"/>
              <path id="Path_9431" data-name="Path 9431" d="M128.949,1571.46a1.257,1.257,0,0,1,.284-.244.188.188,0,0,1,.187.032c.016.1-.061.188-.036.319.02.052.036.111.133.089a.716.716,0,0,1,.457-.139c.12.007.124.21.048.212a3.423,3.423,0,0,0-.624.218.142.142,0,0,1-.181-.023.193.193,0,0,1-.018-.186c.007-.1-.034-.159-.121-.149-.065.036-.123.059-.155-.016-.014-.055-.018-.082.025-.113" transform="translate(-106.237 -1559.299)" fill="#fff"/>
              <path id="Path_9432" data-name="Path 9432" d="M140.409,1571.9a.126.126,0,0,1,0,.191c-.068.063-.118.1-.187.161-.032.056-.053.14.047.167.184.051.609-.224.609-.231a.134.134,0,0,0,.041-.15c-.041-.045-.131-.018-.193-.025-.029,0-.124-.014-.078-.1a.584.584,0,0,0,.077-.149c.029-.063,0-.106-.1-.14a.826.826,0,0,0-.265,0c-.062.013-.084.042-.1.118,0,.117.075.109.148.156" transform="translate(-110.806 -1559.467)" fill="#fff"/>
            </g>
          </g>
        </g>
      </g>
    </g>
  </g>
</svg>
